gt<svg width="40" height="40" viewBox="0 0 40 40" fill="none" xmlns="http://www.w3.org/2000/svg">
<g clip-path="url(#clip0)">
<path d="M36 0H4C2.93913 0 1.92172 0.421427 1.17157 1.17157C0.421427 1.92172 0 2.93913 0 4L0 36C0 37.0609 0.421427 38.0783 1.17157 38.8284C1.92172 39.5786 2.93913 40 4 40H36C37.0609 40 38.0783 39.5786 38.8284 38.8284C39.5786 38.0783 40 37.0609 40 36V4C40 2.93913 39.5786 1.92172 38.8284 1.17157C38.0783 0.421427 37.0609 0 36 0V0ZM20 12C21.5823 12 23.129 12.4692 24.4446 13.3482C25.7602 14.2273 26.7855 15.4767 27.391 16.9385C27.9965 18.4003 28.155 20.0089 27.8463 21.5607C27.5376 23.1126 26.7757 24.538 25.6569 25.6569C24.538 26.7757 23.1126 27.5376 21.5607 27.8463C20.0089 28.155 18.4003 27.9965 16.9385 27.391C15.4767 26.7855 14.2273 25.7602 13.3482 24.4446C12.4692 23.129 12 21.5823 12 20C12 17.8783 12.8429 15.8434 14.3431 14.3431C15.8434 12.8429 17.8783 12 20 12ZM5 36C4.86639 36.0088 4.73244 35.989 4.6071 35.9419C4.48177 35.8948 4.36795 35.8214 4.27327 35.7267C4.17859 35.632 4.10523 35.5182 4.0581 35.3929C4.01097 35.2676 3.99116 35.1336 4 35V18H8.2C8.03463 18.6531 7.96723 19.3271 8 20C8 23.1826 9.26428 26.2348 11.5147 28.4853C13.7652 30.7357 16.8174 32 20 32C23.1826 32 26.2348 30.7357 28.4853 28.4853C30.7357 26.2348 32 23.1826 32 20C32.0328 19.3271 31.9654 18.6531 31.8 18H36V35C36.0088 35.1336 35.989 35.2676 35.9419 35.3929C35.8948 35.5182 35.8214 35.632 35.7267 35.7267C35.632 35.8214 35.5182 35.8948 35.3929 35.9419C35.2676 35.989 35.1336 36.0088 35 36H5ZM36 9C36.0088 9.13361 35.989 9.26756 35.9419 9.3929C35.8948 9.51823 35.8214 9.63205 35.7267 9.72673C35.632 9.82141 35.5182 9.89477 35.3929 9.9419C35.2676 9.98903 35.1336 10.0088 35 10H31C30.8664 10.0088 30.7324 9.98903 30.6071 9.9419C30.4818 9.89477 30.368 9.82141 30.2733 9.72673C30.1786 9.63205 30.1052 9.51823 30.0581 9.3929C30.011 9.26756 29.9912 9.13361 30 9V5C29.9912 4.86639 30.011 4.73244 30.0581 4.6071C30.1052 4.48177 30.1786 4.36795 30.2733 4.27327C30.368 4.17859 30.4818 4.10523 30.6071 4.0581C30.7324 4.01097 30.8664 3.99116 31 4H35C35.1336 3.99116 35.2676 4.01097 35.3929 4.0581C35.5182 4.10523 35.632 4.17859 35.7267 4.27327C35.8214 4.36795 35.8948 4.48177 35.9419 4.6071C35.989 4.73244 36.0088 4.86639 36 5V9Z" fill="white"/>
</g>
<defs>
<clipPath id="clip0">
<rect width="40" height="40" fill="white"/>
</clipPath>
</defs>
</svg>
