<?xml version="1.0" standalone="no"?>
  <!DOCTYPE svg PUBLIC "-//W3C//DTD SVG 1.1//EN" "http://www.w3.org/Graphics/SVG/1.1/DTD/svg11.dtd" >
  <svg>
  <metadata>
  Created by font-carrier
  </metadata>
  <defs>
  <font id="Philosopher-Bold" horiz-adv-x="1070" vert-adv-y="1070" >
    <font-face
      
      font-family="Philosopher"
      
      font-weight="400"
      
      font-stretch="normal"
      
      units-per-em="1000"
      
      ascent="864"
      
      descent="-220"
      
    />
      <missing-glyph />

      

      
      <glyph glyph-name="uni21" unicode="&#x21;" d="M169 155L75 155L56 660L189 660L169 155M183 47Q183 20 167 3Q151-14 122-14Q93-14 77 3Q61 20 61 47Q61 74 77 91Q93 108 122 108Q151 108 167 91Q183 74 183 47Z"  horiz-adv-x="245" vert-adv-y="1000"  />

      
      <glyph glyph-name="uni22" unicode="&#x22;" d="M245 390L215 660L345 660L315 390L245 390M75 390L45 660L175 660L145 390L75 390Z"  horiz-adv-x="390" vert-adv-y="1000"  />

      
      <glyph glyph-name="uni23" unicode="&#x23;" d="M116 0L152 172L29 172L29 237L165 237L202 413L89 413L89 478L216 478L257 675L356 675L315 478L442 478L483 675L582 675L541 478L669 478L669 413L527 413L491 237L609 237L609 172L477 172L441 0L342 0L378 172L251 172L215 0L116 0M265 237L391 237L428 413L301 413L265 237Z"  horiz-adv-x="699" vert-adv-y="1000"  />

      
      <glyph glyph-name="uni24" unicode="&#x24;" d="M305 676Q341 673 375 663Q409 653 435 638Q461 623 477 603Q493 583 493 558L493 441L465 441Q450 536 410 580Q370 624 305 631L305 390L388 341Q456 301 487.50 262.50Q519 224 519 169Q519 90 463.50 41Q408-8 305-16L305-80L235-80L235-15Q198-12 163-3Q128 6 101 21Q74 36 58 56.50Q42 77 42 103L42 220L70 220Q85 126 125.50 81.50Q166 37 235 29L235 287L167 328Q99 368 71 410Q43 452 43 507Q43 579 94 624Q145 669 235 677L235 735L305 735L305 676M393 125Q393 164 369.50 191.50Q346 219 305 245L305 31Q345 39 369 62.50Q393 86 393 125M161 536Q161 500 180.50 477.50Q200 455 235 432L235 628Q200 618 180.50 594.50Q161 571 161 536Z"  horiz-adv-x="550" vert-adv-y="1000"  />

      
      <glyph glyph-name="uni25" unicode="&#x25;" d="M83 0L567 660L673 660L189 0L83 0M568 271Q641 271 683.50 235Q726 199 726 133Q726 67 683.50 31Q641-5 568-5Q493-5 450.50 31Q408 67 408 133Q408 199 450.50 235Q493 271 568 271M566 231Q528 231 508 206Q488 181 488 133Q488 85 508 60Q528 35 567 35Q606 35 626 60Q646 85 646 133Q646 181 625.50 206Q605 231 566 231M190 665Q263 665 305.50 629Q348 593 348 527Q348 461 305.50 425Q263 389 190 389Q115 389 72.50 425Q30 461 30 527Q30 593 72.50 629Q115 665 190 665M188 625Q150 625 130 600Q110 575 110 527Q110 479 130 454Q150 429 189 429Q228 429 248 454Q268 479 268 527Q268 575 247.50 600Q227 625 188 625Z"  horiz-adv-x="755" vert-adv-y="1000"  />

      
      <glyph glyph-name="uni26" unicode="&#x26;" d="M32 135Q32 169 44.50 196.50Q57 224 78.50 247Q100 270 128.50 289.50Q157 309 190 326Q183 332 164.50 350.50Q146 369 127 396Q108 423 93.50 456Q79 489 79 524Q79 598 132 639Q185 680 279 680Q370 680 417 641Q464 602 464 540Q464 509 451.50 481.50Q439 454 417.50 429Q396 404 368 382Q340 360 309 340L494 140Q512 160 527.50 182Q543 204 554 221Q567 241 578 261L616 236Q607 215 594 193Q583 174 566.50 150.50Q550 127 528 103L625 0L489 0L451 38Q451 38 438.50 29Q426 20 403 9Q380-2 348-11Q316-20 279-20Q210-20 162.50-7.50Q115 5 86 26Q57 47 44.50 75Q32 103 32 135M288 20Q318 20 343 28Q368 36 385 46Q405 57 421 72Q370 128 325.50 175Q281 222 230 278Q203 254 182.50 220.50Q162 187 162 145Q162 88 193.50 54Q225 20 288 20M209 524Q209 497 215.50 474.50Q222 452 231.50 434Q241 416 252 403Q263 390 272 381Q304 410 324 445.50Q344 481 344 530Q344 561 338 582Q332 603 322.50 616Q313 629 301.50 634.50Q290 640 279 640Q245 640 227 615.50Q209 591 209 524Z"  horiz-adv-x="636" vert-adv-y="1000"  />

      
      <glyph glyph-name="uni27" unicode="&#x27;" d="M75 390L45 660L175 660L145 390L75 390Z"  horiz-adv-x="220" vert-adv-y="1000"  />

      
      <glyph glyph-name="uni28" unicode="&#x28;" d="M24 240Q24 383 93.50 496Q163 609 297 700L311 680Q267 641 237 592.50Q207 544 188.50 488Q170 432 162 369.50Q154 307 154 240Q154 172 162 110Q170 48 188.50-8Q207-64 237-112.50Q267-161 311-200L297-220Q163-129 93.50-16Q24 97 24 240Z"  horiz-adv-x="320" vert-adv-y="1000"  />

      
      <glyph glyph-name="uni29" unicode="&#x29;" d="M297 240Q297 97 227.50-16Q158-129 24-220L10-200Q54-161 84-112.50Q114-64 132.50-8Q151 48 159 110Q167 172 167 240Q167 307 159 369.50Q151 432 132.50 488Q114 544 84 592.50Q54 641 10 680L24 700Q158 609 227.50 496Q297 383 297 240Z"  horiz-adv-x="321" vert-adv-y="1000"  />

      
      <glyph glyph-name="uni2a" unicode="&#x2a;" d="M161 660L273 660L249 539L347 628L396 542L252 492L396 442L347 356L248 446L273 324L161 324L185 445L87 356L38 442L182 492L38 542L87 628L185 539L161 660Z"  horiz-adv-x="434" vert-adv-y="1000"  />

      
      <glyph glyph-name="uni2b" unicode="&#x2b;" d="M228 295L31 295L31 365L228 365L228 560L318 560L318 365L515 365L515 295L318 295L318 100L228 100L228 295Z"  horiz-adv-x="546" vert-adv-y="1000"  />

      
      <glyph glyph-name="uni2c" unicode="&#x2c;" d="M112-14Q83-14 67 3Q51 20 51 47Q51 74 67 91Q83 108 112 108Q145 108 161.50 84Q178 60 178 30Q178-27 152.50-72.50Q127-118 63-160L45-136Q57-128 71.50-116Q86-104 98.50-88Q111-72 119-52.50Q127-33 127-11L112-14Z"  horiz-adv-x="228" vert-adv-y="1000"  />

      
      <glyph glyph-name="uni2d" unicode="&#x2d;" d="M58 312L337 312L337 217L58 217L58 312Z"  horiz-adv-x="395" vert-adv-y="1000"  />

      
      <glyph glyph-name="uni2e" unicode="&#x2e;" d="M173 47Q173 20 157 3Q141-14 112-14Q83-14 67 3Q51 20 51 47Q51 74 67 91Q83 108 112 108Q141 108 157 91Q173 74 173 47Z"  horiz-adv-x="224" vert-adv-y="1000"  />

      
      <glyph glyph-name="uni2f" unicode="&#x2f;" d="M21 0L342 660L454 660L133 0L21 0Z"  horiz-adv-x="475" vert-adv-y="1000"  />

      
      <glyph glyph-name="uni30" unicode="&#x30;" d="M303 635Q240 635 211.50 561.50Q183 488 183 330Q183 172 211.50 98.50Q240 25 303 25Q366 25 394.50 98.50Q423 172 423 330Q423 488 394.50 561.50Q366 635 303 635M303 680Q375 680 424.50 654.50Q474 629 504.50 583Q535 537 549 472.50Q563 408 563 330Q563 252 549 187.50Q535 123 504.50 77Q474 31 424.50 5.50Q375-20 303-20Q231-20 181.50 5.50Q132 31 101.50 77Q71 123 57 187.50Q43 252 43 330Q43 408 57 472.50Q71 537 101.50 583Q132 629 181.50 654.50Q231 680 303 680Z"  horiz-adv-x="606" vert-adv-y="1000"  />

      
      <glyph glyph-name="uni31" unicode="&#x31;" d="M249 0L119 0L119 542L32 486L8 517L162 660L249 660L249 0Z"  horiz-adv-x="323" vert-adv-y="1000"  />

      
      <glyph glyph-name="uni32" unicode="&#x32;" d="M41 0L41 65Q62 86 93.50 115Q125 144 159 178.50Q193 213 227.50 251Q262 289 289 329Q316 369 333 409Q350 449 350 487Q350 526 340.50 554Q331 582 316 600Q301 618 281 626.50Q261 635 240 635Q177 635 134 593Q91 551 76 460L41 460Q41 498 44 537.50Q47 577 65 600Q92 633 144.50 656.50Q197 680 260 680Q294 680 334.50 673Q375 666 409.50 645Q444 624 467 586Q490 548 490 487Q490 440 467.50 393.50Q445 347 410 303.50Q375 260 332.50 220Q290 180 250 146.50Q210 113 177 87Q144 61 128 45L335 45Q395 45 427.50 73.50Q460 102 460 155L490 155L490 80Q490 65 486.50 50.50Q483 36 473.50 25Q464 14 447.50 7Q431 0 405 0L41 0Z"  horiz-adv-x="539" vert-adv-y="1000"  />

      
      <glyph glyph-name="uni33" unicode="&#x33;" d="M209 615Q149 615 116.50 586.50Q84 558 84 505L54 505L54 580Q54 595 57.50 609.50Q61 624 70.50 635Q80 646 96.50 653Q113 660 139 660L477 660L477 615L228 381Q228 381 235 382Q242 383 251.50 383.50Q261 384 272 384.50Q283 385 292 385Q326 385 364.50 374.50Q403 364 436 340.50Q469 317 490.50 278.50Q512 240 512 185Q512 122 486 82Q460 42 423 19.50Q386-3 345.50-11.50Q305-20 277-20Q229-20 191.50-12.50Q154-5 124.50 9.50Q95 24 71.50 44Q48 64 27 88L55 117Q97 70 143.50 47.50Q190 25 233 25Q262 25 287.50 34Q313 43 331.50 62.50Q350 82 361 112.50Q372 143 372 185Q372 225 362 254.50Q352 284 334.50 303Q317 322 293.50 331Q270 340 244 340Q221 340 202 337Q183 334 169 330Q152 326 139 321L115 359L388 615L209 615Z"  horiz-adv-x="543" vert-adv-y="1000"  />

      
      <glyph glyph-name="uni34" unicode="&#x34;" d="M459 0L329 0L329 170L9 170L9 210L355 660L459 660L459 215L549 215L549 170L459 170L459 0M329 215L329 543L78 215L329 215Z"  horiz-adv-x="572" vert-adv-y="1000"  />

      
      <glyph glyph-name="uni35" unicode="&#x35;" d="M262 390Q301 390 346.50 381Q392 372 430.50 349.50Q469 327 494.50 288Q520 249 520 190Q520 127 493.50 86.50Q467 46 428 22Q389-2 345-11Q301-20 265-20Q224-20 191-12.50Q158-5 131 9Q104 23 81 43Q58 63 37 88L66 114Q104 67 151.50 46Q199 25 242 25Q271 25 296 34Q321 43 340 63Q359 83 369.50 114.50Q380 146 380 190Q380 268 338.50 306Q297 344 222 344Q201 344 179 340.50Q157 337 139 332Q118 327 97 321L57 360L68 660L457 660L457 616L184 616L175 385Q190 386 205 387Q218 388 233 389Q248 390 262 390Z"  horiz-adv-x="546" vert-adv-y="1000"  />

      
      <glyph glyph-name="uni36" unicode="&#x36;" d="M44 330Q44 511 114.50 595.50Q185 680 324 680Q358 680 387 674.50Q416 669 438 663Q464 655 484 646L478 618Q455 622 432 626Q412 629 388.50 632Q365 635 344 635Q269 635 224 574Q179 513 179 385Q196 398 217 409Q235 418 261 425.50Q287 433 319 433Q377 433 417.50 416.50Q458 400 482.50 370Q507 340 518 298Q529 256 529 205Q529 161 514 120.50Q499 80 469.50 48.50Q440 17 396-1.50Q352-20 294-20Q169-20 106.50 68Q44 156 44 330M289 388Q266 388 246 380.50Q226 373 211 363.50Q196 354 187.50 346Q179 338 179 337Q179 254 187 194.50Q195 135 210 97.50Q225 60 246.50 42.50Q268 25 294 25Q318 25 337 39.50Q356 54 368.50 78.50Q381 103 387.50 135.50Q394 168 394 205Q394 294 370 341Q346 388 289 388Z"  horiz-adv-x="560" vert-adv-y="1000"  />

      
      <glyph glyph-name="uni37" unicode="&#x37;" d="M217 0L96 0L346 615L176 615Q116 615 83.50 586.50Q51 558 51 505L21 505L21 580Q21 595 24.50 609.50Q28 624 37.50 635Q47 646 63.50 653Q80 660 106 660L467 660L467 615L217 0Z"  horiz-adv-x="473" vert-adv-y="1000"  />

      
      <glyph glyph-name="uni38" unicode="&#x38;" d="M514 518Q514 489 503.50 465Q493 441 474.50 421Q456 401 431.50 385.50Q407 370 379 358Q410 341 439 322Q468 303 490 280Q512 257 525.50 228Q539 199 539 162Q539 112 519.50 77.50Q500 43 466 21.50Q432 0 386.50-10Q341-20 289-20Q238-20 192.50-10.50Q147-1 113 20Q79 41 59 73.50Q39 106 39 152Q39 188 53 215.50Q67 243 90 265Q113 287 143 304Q173 321 206 335Q177 351 151 368Q125 385 105.50 405.50Q86 426 75 451Q64 476 64 508Q64 557 82 590.50Q100 624 130.50 643.50Q161 663 202 671.50Q243 680 289 680Q335 680 376 672Q417 664 448 645Q479 626 496.50 595Q514 564 514 518M404 142Q404 173 392.50 197.50Q381 222 361 242Q341 262 314.50 279Q288 296 259 311Q221 291 197.50 255.50Q174 220 174 152Q174 86 206 55.50Q238 25 289 25Q340 25 372 54.50Q404 84 404 142M199 528Q199 504 209.50 483.50Q220 463 237.50 445Q255 427 278 411.50Q301 396 327 384Q353 404 366 433.50Q379 463 379 518Q379 552 370.50 575Q362 598 348.50 611Q335 624 319 629.50Q303 635 289 635Q275 635 259 630Q243 625 229.50 612.50Q216 600 207.50 579.50Q199 559 199 528Z"  horiz-adv-x="578" vert-adv-y="1000"  />

      
      <glyph glyph-name="uni39" unicode="&#x39;" d="M516 330Q516 148 445.50 64Q375-20 236-20Q201-20 172.50-15Q144-10 122-3Q96 4 76 14L82 42Q105 37 128 33Q148 30 171 27.50Q194 25 216 25Q291 25 336 86Q381 147 381 275Q364 262 343 251Q325 242 299 234.50Q273 227 241 227Q182 227 142 243.50Q102 260 77.50 290Q53 320 42 362Q31 404 31 455Q31 499 46 539.50Q61 580 90.50 611.50Q120 643 164 661.50Q208 680 266 680Q391 680 453.50 592Q516 504 516 330M271 272Q293 272 313 279.50Q333 287 348 296.50Q363 306 372 314Q381 322 381 323Q381 406 373 465.50Q365 525 350 562.50Q335 600 313.50 617.50Q292 635 266 635Q242 635 223 620.50Q204 606 191.50 581.50Q179 557 172.50 524.50Q166 492 166 455Q166 366 190 319Q214 272 271 272Z"  horiz-adv-x="560" vert-adv-y="1000"  />

      
      <glyph glyph-name="uni3a" unicode="&#x3a;" d="M180 47Q180 20 164 3Q148-14 119-14Q90-14 74 3Q58 20 58 47Q58 74 74 91Q90 108 119 108Q148 108 164 91Q180 74 180 47M180 400Q180 373 164 356Q148 339 119 339Q90 339 74 356Q58 373 58 400Q58 427 74 444Q90 461 119 461Q148 461 164 444Q180 427 180 400Z"  horiz-adv-x="238" vert-adv-y="1000"  />

      
      <glyph glyph-name="uni3b" unicode="&#x3b;" d="M185 400Q185 373 169 356Q153 339 124 339Q95 339 79 356Q63 373 63 400Q63 427 79 444Q95 461 124 461Q153 461 169 444Q185 427 185 400M124-14Q95-14 79 3Q63 20 63 47Q63 74 79 91Q95 108 124 108Q157 108 173.50 84Q190 60 190 30Q190-27 164.50-72.50Q139-118 75-160L57-136Q69-128 83.50-116Q98-104 110.50-88Q123-72 131-52.50Q139-33 139-11L124-14Z"  horiz-adv-x="249" vert-adv-y="1000"  />

      
      <glyph glyph-name="uni3c" unicode="&#x3c;" d="M29 370L549 596L549 505L157 335L549 165L549 74L29 300L29 370Z"  horiz-adv-x="610" vert-adv-y="1000"  />

      
      <glyph glyph-name="uni3d" unicode="&#x3d;" d="M58 455L607 455L607 385L58 385L58 455M58 275L607 275L607 205L58 205L58 275Z"  horiz-adv-x="665" vert-adv-y="1000"  />

      
      <glyph glyph-name="uni3e" unicode="&#x3e;" d="M581 300L61 74L61 165L453 335L61 505L61 596L581 370L581 300Z"  horiz-adv-x="610" vert-adv-y="1000"  />

      
      <glyph glyph-name="uni3f" unicode="&#x3f;" d="M225 635Q166 635 122 591.50Q78 548 59 447L29 447Q29 491 32 532Q35 573 55 599Q69 615 90 629.50Q111 644 137.50 655.50Q164 667 194 673.50Q224 680 255 680Q301 680 340 667Q379 654 407.50 629.50Q436 605 452.50 569Q469 533 469 487Q469 445 455 414Q441 383 420 358.50Q399 334 374 312.50Q349 291 327 268Q305 245 289 218Q273 191 270 156L202 156Q205 211 225 249Q245 287 268 321Q291 355 310 393Q329 431 329 487Q329 529 321 557.50Q313 586 299.50 603.50Q286 621 266.50 628Q247 635 225 635M297 47Q297 20 281 3Q265-14 236-14Q207-14 191 3Q175 20 175 47Q175 74 191 91Q207 108 236 108Q265 108 281 91Q297 74 297 47Z"  horiz-adv-x="498" vert-adv-y="1000"  />

      
      <glyph glyph-name="uni40" unicode="&#x40;" d="M414 450Q380 450 352.50 429.50Q325 409 314 360L259 360Q259 429 295 465Q310 480 349.50 487.50Q389 495 434 495Q530 495 582.50 443Q635 391 635 285L635 102Q635 80 644.50 65.50Q654 51 675 51Q698 51 717 61.50Q736 72 749 97Q762 122 769 164Q776 206 776 270Q776 359 752 427.50Q728 496 683.50 542Q639 588 577 611.50Q515 635 440 635Q365 635 303 611Q241 587 196.50 539Q152 491 128 419Q104 347 104 250Q104 153 128 81Q152 9 196.50-39Q241-87 303-111Q365-135 440-135Q535-135 613-110.50Q691-86 757-40L783-80Q720-124 636.50-152Q553-180 440-180Q350-180 275.50-152.50Q201-125 147.50-71Q94-17 64 63.50Q34 144 34 250Q34 356 64 436.50Q94 517 147.50 571Q201 625 275.50 652.50Q350 680 440 680Q530 680 604.50 653Q679 626 732.50 573.50Q786 521 816 444.50Q846 368 846 270Q846 139 795 72Q744 5 635 5Q622 5 604.50 6Q587 7 569 12.50Q551 18 535 29Q519 40 510 60L505 60Q495 44 479 32Q465 21 443.50 13Q422 5 390 5Q307 5 263.50 42.50Q220 80 220 140Q220 174 232 201Q244 228 274.50 247.50Q305 267 357 277.50Q409 288 490 288L505 288Q505 337 498.50 368.50Q492 400 480 418Q468 436 451.50 443Q435 450 414 450M505 242L490 242Q449 242 422 236Q395 230 379 217.50Q363 205 356.50 185.50Q350 166 350 140Q350 55 420 55Q443 55 458.50 65Q474 75 485 87Q497 101 505 120L505 242Z"  horiz-adv-x="877" vert-adv-y="1000"  />

      
      <glyph glyph-name="uni41" unicode="&#x41;" d="M572 126Q590 82 616 56Q642 30 676 26L676 1Q668-1 653.50-2.50Q639-4 628-4Q604-4 576.50 0.50Q549 5 522.50 18.50Q496 32 472.50 57.50Q449 83 431 126L408 182L142 182L60 0L8 0L303 660L348 660L572 126M163 227L389 227L279 488L163 227Z"  horiz-adv-x="647" vert-adv-y="1000"  />

      
      <glyph glyph-name="uni42" unicode="&#x42;" d="M285 620Q273 620 262 619Q251 618 243 616Q233 614 225 613L225 361L300 361Q361 361 400.50 390Q440 419 440 490Q440 527 426.50 552Q413 577 391.50 592Q370 607 342 613.50Q314 620 285 620M95 530Q95 575 82.50 602.50Q70 630 25 630L15 630L15 660L285 660Q332 660 384 655Q436 650 479.50 632Q523 614 551.50 579Q580 544 580 485Q580 464 571.50 442Q563 420 545.50 400.50Q528 381 502 365.50Q476 350 441 341Q490 336 522.50 321.50Q555 307 574.50 286Q594 265 602 238.50Q610 212 610 183Q610 126 584 90Q558 54 516 34Q474 14 421 7Q368 0 315 0L95 0L95 530M300 40Q383 40 426.50 76Q470 112 470 178Q470 316 300 316L225 316L225 50Q234 47 245 45Q265 40 295 40L300 40Z"  horiz-adv-x="644" vert-adv-y="1000"  />

      
      <glyph glyph-name="uni43" unicode="&#x43;" d="M600 447Q581 538 530.50 586.50Q480 635 397 635Q351 635 311 620Q271 605 241 568.50Q211 532 194 471.50Q177 411 177 320Q177 263 189 209.50Q201 156 227.50 115Q254 74 295.50 49.50Q337 25 397 25Q466 25 525 61.50Q584 98 620 168L655 141Q608 58 540 19Q472-20 367-20Q288-20 226.50 6Q165 32 123 78Q81 124 59 186Q37 248 37 320Q37 396 62 461.50Q87 527 131 575.50Q175 624 235.50 652Q296 680 367 680Q461 680 518.50 655.50Q576 631 604 599Q624 573 627 532Q630 491 630 447L600 447Z"  horiz-adv-x="679" vert-adv-y="1000"  />

      
      <glyph glyph-name="uni44" unicode="&#x44;" d="M300 620Q285 620 271.50 619Q258 618 247 616Q235 614 225 613L225 47Q235 45 247 43Q268 40 300 40L310 40Q362 40 406 60Q450 80 482 117.50Q514 155 532 209Q550 263 550 330Q550 396 532.50 449.50Q515 503 483 541Q451 579 406.50 599.50Q362 620 308 620L300 620M287 660Q390 660 467 637.50Q544 615 596 573Q648 531 674 470.50Q700 410 700 334Q700 260 675 198.50Q650 137 601 93Q552 49 479.50 24.50Q407 0 313 0L95 0L95 530Q95 575 82.50 602.50Q70 630 25 630L15 630L15 660L287 660Z"  horiz-adv-x="736" vert-adv-y="1000"  />

      
      <glyph glyph-name="uni45" unicode="&#x45;" d="M456 660Q482 660 498.50 653Q515 646 524.50 635Q534 624 537.50 609.50Q541 595 541 580L541 495L511 495Q511 559 478.50 587Q446 615 386 615L225 615L225 365L485 365L485 320L225 320L225 45L396 45Q451 45 489.50 69.50Q528 94 554 159L581 149L552 70Q541 38 523.50 19Q506 0 465 0L95 0L95 530Q95 575 82.50 602.50Q70 630 25 630L15 630L15 660L456 660Z"  horiz-adv-x="600" vert-adv-y="1000"  />

      
      <glyph glyph-name="uni46" unicode="&#x46;" d="M434 660Q460 660 476.50 653Q493 646 502.50 635Q512 624 515.50 609.50Q519 595 519 580L519 495L489 495Q489 560 456.50 587.50Q424 615 364 615L225 615L225 360L445 360L445 315L225 315L225 0L95 0L95 530Q95 575 82.50 602.50Q70 630 25 630L15 630L15 660L434 660Z"  horiz-adv-x="539" vert-adv-y="1000"  />

      
      <glyph glyph-name="uni47" unicode="&#x47;" d="M660 47Q602 12 537-4Q472-20 395-20Q317-20 251 8Q185 36 137 84.50Q89 133 62 198.50Q35 264 35 340Q35 412 58.50 474Q82 536 125.50 582Q169 628 229.50 654Q290 680 365 680Q459 680 519 655.50Q579 631 607 599Q617 586 622 569Q627 552 629.50 533.50Q632 515 632.50 496Q633 477 633 460L603 460Q584 552 533 593.50Q482 635 395 635Q335 635 293.50 610.50Q252 586 225.50 545Q199 504 187 450.50Q175 397 175 340Q175 249 192 187.50Q209 126 239 89Q269 52 309 36Q349 20 395 20Q440 20 472 27Q504 34 530 46L530 224Q530 245 536.50 266.50Q543 288 563.50 305.50Q584 323 622 334.50Q660 346 724 346L724 321Q690 321 675 296Q660 271 660 226L660 47Z"  horiz-adv-x="734" vert-adv-y="1000"  />

      
      <glyph glyph-name="uni48" unicode="&#x48;" d="M495 660L625 660L625 130Q625 85 637.50 57.50Q650 30 695 30L705 30L705 0L585 0Q559 0 541.50 6Q524 12 513.50 27Q503 42 499 67Q495 92 495 130L495 320L225 320L225 0L95 0L95 530Q95 575 82.50 602.50Q70 630 25 630L15 630L15 660L135 660Q161 660 178.50 653.50Q196 647 206.50 632Q217 617 221 592Q225 567 225 530L225 365L495 365L495 660Z"  horiz-adv-x="720" vert-adv-y="1000"  />

      
      <glyph glyph-name="uni49" unicode="&#x49;" d="M79 660L209 660L209 130Q209 85 221.50 57.50Q234 30 279 30L289 30L289 0L169 0Q143 0 125.50 6Q108 12 97.50 27Q87 42 83 67Q79 92 79 130L79 660Z"  horiz-adv-x="304" vert-adv-y="1000"  />

      
      <glyph glyph-name="uni4a" unicode="&#x4a;" d="M204 83Q204 18 194.50-24Q185-66 160-91.50Q135-117 91.50-127Q48-137-19-137L-19-107Q3-104 20.50-94Q38-84 50-62.50Q62-41 68-5.50Q74 30 74 83L74 660L204 660L204 83Z"  horiz-adv-x="278" vert-adv-y="1000"  />

      
      <glyph glyph-name="uni4b" unicode="&#x4b;" d="M95 530Q95 575 82.50 602.50Q70 630 25 630L15 630L15 660L135 660Q161 660 178.50 653.50Q196 647 206.50 632Q217 617 221.50 592Q226 567 226 530L226 340L399 555Q415 576 433.50 595Q452 614 474 628.50Q496 643 521 651.50Q546 660 576 660L646 660L646 625Q589 625 543 610.50Q497 596 463 554L314 370L545 130Q564 109 586 91Q608 73 629 58.50Q650 44 669.50 35Q689 26 704 24L704 0Q693-4 673.50-7Q654-10 631-10Q603-10 575-5.50Q547-1 517 12.50Q487 26 455 49Q423 72 387 110L226 278L226 0L96 0L95 530Z"  horiz-adv-x="693" vert-adv-y="1000"  />

      
      <glyph glyph-name="uni4c" unicode="&#x4c;" d="M570 45L570 0L95 0L95 530Q95 575 82.50 602.50Q70 630 25 630L15 630L15 660L135 660Q161 660 178.50 653.50Q196 647 206.50 632Q217 617 221 592Q225 567 225 530L225 45L570 45Z"  horiz-adv-x="570" vert-adv-y="1000"  />

      
      <glyph glyph-name="uni4d" unicode="&#x4d;" d="M774 170Q774 79 789.50 33.50Q805-12 847-20L847-45Q738-45 691 6Q644 57 644 170L644 524L425 0L392 0L124 544L124 0L74 0L74 660L196 660L438 169L643 660L774 660L774 170Z"  horiz-adv-x="867" vert-adv-y="1000"  />

      
      <glyph glyph-name="uni4e" unicode="&#x4e;" d="M568 200L568 660L618 660L618-3L572-3L148 495L148 0L98 0L98 540Q98 559 94 575.50Q90 592 79.50 604Q69 616 51.50 623Q34 630 8 630L3 630L3 660L73 660Q130 660 165.50 645Q201 630 224 600L568 200Z"  horiz-adv-x="692" vert-adv-y="1000"  />

      
      <glyph glyph-name="uni4f" unicode="&#x4f;" d="M558 330Q558 476 508 555.50Q458 635 367 635Q276 635 226.50 555.50Q177 476 177 330Q177 184 226.50 104.50Q276 25 367 25Q458 25 508 104.50Q558 184 558 330M37 330Q37 404 60.50 468Q84 532 127.50 579Q171 626 231.50 653Q292 680 367 680Q442 680 502.50 653Q563 626 606 579Q649 532 672.50 468Q696 404 696 330Q696 256 672.50 192Q649 128 606 81Q563 34 502.50 7Q442-20 367-20Q292-20 231.50 7Q171 34 127.50 81Q84 128 60.50 192Q37 256 37 330Z"  horiz-adv-x="733" vert-adv-y="1000"  />

      
      <glyph glyph-name="uni50" unicode="&#x50;" d="M290 620Q278 620 266 619Q254 618 245 616Q234 614 225 613L225 307L285 307Q310 307 334.50 314Q359 321 378 339Q397 357 408.50 387.50Q420 418 420 464Q420 510 408.50 540Q397 570 378.50 588Q360 606 337 613Q314 620 290 620M290 660Q312 660 341 658Q370 656 400 648.50Q430 641 458.50 628Q487 615 510 592.50Q533 570 546.50 537.50Q560 505 560 459Q560 416 546.50 385Q533 354 511 332.50Q489 311 462 298Q435 285 408.50 278Q382 271 358.50 269Q335 267 320 267L225 267L225 0L95 0L95 530Q95 575 82.50 602.50Q70 630 25 630L15 630L15 660L290 660Z"  horiz-adv-x="577" vert-adv-y="1000"  />

      
      <glyph glyph-name="uni51" unicode="&#x51;" d="M38 330Q38 404 61.50 468Q85 532 128.50 579Q172 626 232.50 653Q293 680 368 680Q443 680 503.50 653Q564 626 607 579Q650 532 673.50 468Q697 404 697 330Q697 268 680.50 213Q664 158 634 114Q604 70 560.50 39Q517 8 463-7Q476-43 501.50-74.50Q527-106 559.50-129.50Q592-153 627-166Q662-179 693-179L693-205Q636-205 579-194.50Q522-184 467-160Q412-136 361-98Q310-60 264-4Q212 12 170 43.50Q128 75 99 118.50Q70 162 54 216Q38 270 38 330M559 330Q559 476 509 555.50Q459 635 368 635Q277 635 227.50 555.50Q178 476 178 330Q178 184 227.50 104.50Q277 25 368 25Q459 25 509 104.50Q559 184 559 330Z"  horiz-adv-x="735" vert-adv-y="1000"  />

      
      <glyph glyph-name="uni52" unicode="&#x52;" d="M291 620Q279 620 267 619Q255 618 246 616Q235 614 226 613L226 342L286 342Q310 342 334 349Q358 356 377.50 372Q397 388 409 415Q421 442 421 481Q421 520 409 546.50Q397 573 378 589.50Q359 606 336 613Q313 620 291 620M266 302L226 302L226 0L95 0L95 530Q95 575 82.50 602.50Q70 630 25 630L15 630L15 660L291 660Q315 660 344 658Q373 656 403 649Q433 642 461.50 629.50Q490 617 512 596.50Q534 576 547.50 546.50Q561 517 561 476Q561 437 546.50 408.50Q532 380 508.50 360.50Q485 341 456 329Q427 317 399 310L504 135Q523 103 540.50 82.50Q558 62 574 50Q590 38 603.50 32.50Q617 27 628 25L628 0Q620-4 599.50-7Q579-10 560-10Q534-10 509.50-3Q485 4 461.50 21Q438 38 414.50 66Q391 94 366 135L266 302Z"  horiz-adv-x="616" vert-adv-y="1000"  />

      
      <glyph glyph-name="uni53" unicode="&#x53;" d="M273-17Q232-17 191.50-9Q151-1 119 14.50Q87 30 67 52.50Q47 75 47 103L47 220L75 220Q91 116 139.50 72Q188 28 272 28Q329 28 363.50 52.50Q398 77 398 125Q398 168 370.50 196.50Q343 225 295 254L172 328Q104 368 76 410Q48 452 48 507Q48 586 108.50 632Q169 678 272 678Q313 678 353.50 670Q394 662 426 646.50Q458 631 478 608.50Q498 586 498 558L498 441L470 441Q453 545 406 589Q359 633 283 633Q229 633 197.50 607Q166 581 166 536Q166 515 173.50 498.50Q181 482 194.50 468Q208 454 227 441Q246 428 270 414L393 341Q461 301 492.50 262.50Q524 224 524 169Q524 83 459 33Q394-17 273-17Z"  horiz-adv-x="561" vert-adv-y="1000"  />

      
      <glyph glyph-name="uni54" unicode="&#x54;" d="M571 660L571 615L362 615L362 0L232 0L232 615L161 615Q108 615 77 588.50Q46 562 46 495L16 495L16 580Q16 595 19.50 609.50Q23 624 32.50 635Q42 646 58.50 653Q75 660 101 660L571 660Z"  horiz-adv-x="575" vert-adv-y="1000"  />

      
      <glyph glyph-name="uni55" unicode="&#x55;" d="M223 258Q224 154 263.50 94.50Q303 35 382 35Q484 35 530.50 96Q577 157 577 288L577 660L627 660L627 288Q627 217 613 162Q599 107 567.50 68.50Q536 30 485.50 10Q435-10 362-10Q92-10 92 288L92 530Q92 575 79.50 602.50Q67 630 22 630L22 660L132 660Q158 660 175.50 653.50Q193 647 203.50 632Q214 617 218 592Q222 567 222 530L223 258Z"  horiz-adv-x="694" vert-adv-y="1000"  />

      
      <glyph glyph-name="uni56" unicode="&#x56;" d="M66 543Q42 599 19.50 621.50Q-3 644-33 648L-33 668Q-29 668-13.50 669Q2 670 9 670Q35 670 62.50 666Q90 662 116 649Q142 636 165.50 611Q189 586 207 543L365 169L576 660L627 660L339-10L299-10L66 543Z"  horiz-adv-x="635" vert-adv-y="1000"  />

      
      <glyph glyph-name="uni57" unicode="&#x57;" d="M666 179L837 660L885 660L648-9L608-9L454 383L317-9L277-9L61 543Q38 600 15 622Q-8 644-38 648L-38 668Q-34 668-18.50 669Q-3 670 4 670Q30 670 58 666.50Q86 663 112 650Q138 637 161.50 611.50Q185 586 202 543L337 198L427 454L392 543Q369 600 342.50 622Q316 644 286 648L286 668Q290 668 304 669Q318 670 325 670Q351 670 379 666.50Q407 663 433.50 650Q460 637 483 611.50Q506 586 523 543L666 179Z"  horiz-adv-x="906" vert-adv-y="1000"  />

      
      <glyph glyph-name="uni58" unicode="&#x58;" d="M347 416L540 660L605 660L376 371L533 130Q545 111 561.50 92Q578 73 595.50 57.50Q613 42 631.50 32Q650 22 667 20L667 0L557 0Q529 0 504.50 10Q480 20 459.50 36Q439 52 422.50 71.50Q406 91 394 110L293 266L82 0L17 0L263 311L121 530Q109 549 92.50 568Q76 587 58.50 602.50Q41 618 22.50 628Q4 638-13 640L-13 660L97 660Q125 660 149.50 650Q174 640 194.50 624Q215 608 231.50 588.50Q248 569 260 550L347 416Z"  horiz-adv-x="647" vert-adv-y="1000"  />

      
      <glyph glyph-name="uni59" unicode="&#x59;" d="M377 345L571 660L636 660L409 291L409 0L279 0L279 264L102 530Q89 549 73 568Q57 587 39.50 602.50Q22 618 4 628Q-14 638-31 640L-31 660L78 660Q106 660 130.50 650Q155 640 175.50 624Q196 608 212.50 588.50Q229 569 241 550L377 345Z"  horiz-adv-x="638" vert-adv-y="1000"  />

      
      <glyph glyph-name="uni5a" unicode="&#x5a;" d="M581 660L189 45L576 45L576 0L31 0L31 32L403 616L186 616Q133 616 102 589Q71 562 71 495L41 495L41 580Q41 595 44.50 609.50Q48 624 57.50 635Q67 646 83.50 653Q100 660 126 660L581 660Z"  horiz-adv-x="599" vert-adv-y="1000"  />

      
      <glyph glyph-name="uni5b" unicode="&#x5b;" d="M311-200L66-200L66 680L311 680L311 635L186 635L186-155L311-155L311-200Z"  horiz-adv-x="331" vert-adv-y="1000"  />

      
      <glyph glyph-name="uni5c" unicode="&#x5c;" d="M342 0L21 660L133 660L454 0L342 0Z"  horiz-adv-x="475" vert-adv-y="1000"  />

      
      <glyph glyph-name="uni5d" unicode="&#x5d;" d="M20-155L145-155L145 635L20 635L20 680L265 680L265-200L20-200L20-155Z"  horiz-adv-x="331" vert-adv-y="1000"  />

      
      <glyph glyph-name="uni5e" unicode="&#x5e;" d="M279 680L494 330L396 330L257 557L118 330L20 330L235 680L279 680Z"  horiz-adv-x="514" vert-adv-y="1000"  />

      
      <glyph glyph-name="uni5f" unicode="&#x5f;" d="M428-70L8-70L8 0L428 0L428-70Z"  horiz-adv-x="436" vert-adv-y="1000"  />

      
      <glyph glyph-name="uni60" unicode="&#x60;" d="M20 680L145 680L207 477L133 477L20 680Z"  horiz-adv-x="227" vert-adv-y="1000"  />

      
      <glyph glyph-name="uni61" unicode="&#x61;" d="M314 230L299 230Q227 230 195.50 204Q164 178 164 125Q164 83 181.50 61.50Q199 40 229 40Q252 40 267.50 50Q283 60 294 72Q306 86 314 105L314 230M239 480Q337 480 390.50 428Q444 376 444 270L444 0L359 0L324 45L319 45Q308 29 291 17Q277 6 254-2Q231-10 199-10Q116-10 72.50 27.50Q29 65 29 125Q29 161 41 188.50Q53 216 83.50 235.50Q114 255 166 265Q218 275 299 275L314 275Q314 365 289 400Q264 435 219 435Q202 435 186.50 431.50Q171 428 158 418Q145 408 135 390.50Q125 373 119 345L64 345Q64 371 67.50 398Q71 425 89 445Q107 465 148.50 472.50Q190 480 239 480Z"  horiz-adv-x="496" vert-adv-y="1000"  />

      
      <glyph glyph-name="uni62" unicode="&#x62;" d="M190 100Q199 81 212 67Q223 55 240 45Q257 35 280 35Q306 35 324 50Q342 65 353.50 92Q365 119 370 155.50Q375 192 375 235Q375 278 370 314.50Q365 351 353 378Q341 405 322 420Q303 435 275 435Q256 435 240.50 430Q225 425 214 420Q201 413 190 405L190 100M60 530Q60 575 47.50 602.50Q35 630-10 630L-20 630L-20 660L100 660Q126 660 143.50 653.50Q161 647 171.50 632Q182 617 186 592Q190 567 190 530L190 450Q202 458 218 465Q232 470 251 475Q270 480 295 480Q349 480 389.50 461Q430 442 457 409Q484 376 497 331Q510 286 510 235Q510 184 497 139Q484 94 457.50 61Q431 28 391.50 9Q352-10 300-10Q270-10 248-2Q226 6 212 17Q195 29 185 45L180 45L145 0L60 0L60 530Z"  horiz-adv-x="547" vert-adv-y="1000"  />

      
      <glyph glyph-name="uni63" unicode="&#x63;" d="M291 435Q238 435 204.50 386Q171 337 171 235Q171 35 296 35Q348 35 380.50 59Q413 83 439 118L470 95Q459 78 443.50 59.50Q428 41 405 25.50Q382 10 350.50 0Q319-10 276-10Q216-10 171 9.50Q126 29 96 62.50Q66 96 51 140.50Q36 185 36 235Q36 285 51 329.50Q66 374 96 407.50Q126 441 171 460.50Q216 480 276 480Q333 480 372.50 472Q412 464 431 445Q450 426 453 394Q456 362 456 305L426 305Q422 369 386.50 402Q351 435 291 435Z"  horiz-adv-x="496" vert-adv-y="1000"  />

      
      <glyph glyph-name="uni64" unicode="&#x64;" d="M357 405Q346 413 333 420Q322 425 306.50 430Q291 435 272 435Q244 435 225 420Q206 405 194 378Q182 351 177 314.50Q172 278 172 235Q172 192 177 155.50Q182 119 193 92Q204 65 222.50 50Q241 35 267 35Q290 35 306.50 45Q323 55 334 67Q347 81 357 100L357 405M357 530Q357 575 344.50 602.50Q332 630 287 630L277 630L277 660L397 660Q423 660 440.50 653.50Q458 647 468.50 632Q479 617 483 592Q487 567 487 530L487 0L402 0L367 45L362 45Q351 29 334 17Q320 6 298.50-2Q277-10 247-10Q194-10 155 9Q116 28 89.50 61Q63 94 50 139Q37 184 37 235Q37 286 50 331Q63 376 90 409Q117 442 157.50 461Q198 480 252 480Q276 480 295.50 475Q315 470 329 465Q345 458 357 450L357 530Z"  horiz-adv-x="547" vert-adv-y="1000"  />

      
      <glyph glyph-name="uni65" unicode="&#x65;" d="M282 35Q334 35 366.50 59Q399 83 425 118L456 95Q445 78 429.50 59.50Q414 41 391.50 25.50Q369 10 338.50 0Q308-10 267-10Q214-10 171.50 8.50Q129 27 99 60Q69 93 53 137.50Q37 182 37 235Q37 295 54 341Q71 387 100.50 417.50Q130 448 170 464Q210 480 257 480Q304 480 344 465.50Q384 451 413.50 425Q443 399 460 362Q477 325 477 280Q477 269 476.50 257.50Q476 246 475 237Q474 226 473 217L172 217Q172 118 202.50 76.50Q233 35 282 35M342 262Q342 312 335.50 345Q329 378 318 398Q307 418 291.50 426.50Q276 435 257 435Q240 435 224.50 426.50Q209 418 197.50 398Q186 378 179 345Q172 312 172 262L342 262Z"  horiz-adv-x="509" vert-adv-y="1000"  />

      
      <glyph glyph-name="uni66" unicode="&#x66;" d="M267 670Q293 670 319 665.50Q345 661 358 653Q383 638 397 610L357 575Q342 598 320 611.50Q298 625 272 625Q238 625 220 597.50Q202 570 202 497L202 470L332 470L332 425L202 425L202 0L72 0L72 425L12 425L12 470L72 470L72 497Q72 582 120.50 626Q169 670 267 670Z"  horiz-adv-x="342" vert-adv-y="1000"  />

      
      <glyph glyph-name="uni67" unicode="&#x67;" d="M44 324Q44 367 60.50 397Q77 427 106.50 445.50Q136 464 175 472Q214 480 259 480L469 480L469 453L379 441Q421 425 447.50 392Q474 359 474 324Q474 281 458.50 251.50Q443 222 415 204Q387 186 347.50 178Q308 170 259 170Q214 170 186.50 165Q159 160 159 140Q159 123 186.50 118.50Q214 114 259 113Q310 112 354.50 102Q399 92 432 72.50Q465 53 484.50 23.50Q504-6 504-45Q504-89 485.50-118.50Q467-148 434-166Q401-184 356-192Q311-200 259-200Q206-200 161.50-192Q117-184 84-166Q51-148 32.50-118.50Q14-89 14-45Q14-18 26 3.50Q38 25 57.50 41Q77 57 101 68Q125 79 149 85Q130 91 117 104Q104 117 104 140Q104 174 144 190Q102 205 73 241.50Q44 278 44 324M220 72Q187 58 168 30.50Q149 3 149-45Q149-102 179-128.50Q209-155 259-155Q309-155 339-128.50Q369-102 369-45Q369 0 341 29Q313 58 267 67L220 72M339 324Q339 381 316.50 410.50Q294 440 259 440Q224 440 201.50 412.50Q179 385 179 324Q179 262 201.50 236Q224 210 259 210Q294 210 316.50 236Q339 262 339 324Z"  horiz-adv-x="523" vert-adv-y="1000"  />

      
      <glyph glyph-name="uni68" unicode="&#x68;" d="M60 530Q60 575 47.50 602.50Q35 630-10 630L-20 630L-20 660L100 660Q126 660 143.50 653.50Q161 647 171.50 632Q182 617 186 592Q190 567 190 530L190 442Q204 452 221 461Q235 468 255 474Q275 480 300 480Q334 480 368 472Q402 464 429 443.50Q456 423 473 387.50Q490 352 490 297L490 0L360 0L360 292Q360 331 352.50 357Q345 383 332.50 399.50Q320 416 304 423Q288 430 270 430Q253 430 238.50 424.50Q224 419 213 412Q201 404 190 395L190 0L60 0L60 530Z"  horiz-adv-x="544" vert-adv-y="1000"  />

      
      <glyph glyph-name="uni69" unicode="&#x69;" d="M199 580Q199 554 183 539Q167 524 144 524Q106 524 87.50 547Q69 570 69 600Q69 626 85 641Q101 656 124 656Q162 656 180.50 633Q199 610 199 580M79 340Q79 385 66.50 412.50Q54 440 9 440L-1 440L-1 470L119 470Q145 470 162.50 463.50Q180 457 190.50 442Q201 427 205 402Q209 377 209 340L209 0L79 0L79 340Z"  horiz-adv-x="267" vert-adv-y="1000"  />

      
      <glyph glyph-name="uni6a" unicode="&#x6a;" d="M79 340Q79 385 66.50 412.50Q54 440 9 440L-1 440L-1 470L119 470Q145 470 162.50 463.50Q180 457 190.50 442Q201 427 205 402Q209 377 209 340L209 25Q209-37 198-78.50Q187-120 161.50-144.50Q136-169 94.50-179.50Q53-190-9-190L-9-165Q13-161 30-150Q47-139 57.50-117Q68-95 73.50-60.50Q79-26 79 25L79 340M199 580Q199 554 183 539Q167 524 144 524Q106 524 87.50 547Q69 570 69 600Q69 626 85 641Q101 656 124 656Q162 656 180.50 633Q199 610 199 580Z"  horiz-adv-x="267" vert-adv-y="1000"  />

      
      <glyph glyph-name="uni6b" unicode="&#x6b;" d="M190 196L190 0L60 0L60 530Q60 575 47.50 602.50Q35 630-10 630L-20 630L-20 660L100 660Q126 660 143.50 653.50Q161 647 171.50 632Q182 617 186 592Q190 567 190 530L190 245L311 393Q326 411 340.50 425.50Q355 440 371.50 450Q388 460 408.50 465Q429 470 455 470L475 470L475 444Q445 444 421 432Q397 420 375 394L278 276L411 100Q437 65 460 47Q483 29 504 24L504 0Q496-4 475-7Q454-10 435-10Q393-10 356 7.50Q319 25 286 70L190 196Z"  horiz-adv-x="505" vert-adv-y="1000"  />

      
      <glyph glyph-name="uni6c" unicode="&#x6c;" d="M64 530Q64 575 51.50 602.50Q39 630-6 630L-16 630L-16 660L104 660Q130 660 147.50 653.50Q165 647 175.50 632Q186 617 190 592Q194 567 194 530L194 0L64 0L64 530Z"  horiz-adv-x="258" vert-adv-y="1000"  />

      
      <glyph glyph-name="uni6d" unicode="&#x6d;" d="M189 432Q207 448 238.50 464Q270 480 315 480Q343 480 366 473.50Q389 467 406.50 458Q424 449 435.50 439.50Q447 430 453 423Q473 445 505 462.50Q537 480 595 480Q678 480 724 436.50Q770 393 770 296L770 0L640 0L640 297Q640 370 617 400Q594 430 560 430Q532 430 509.50 419Q487 408 474 392Q478 383 482 370Q485 359 487.50 340.50Q490 322 490 296L490 0L360 0L360 297Q360 370 337 400Q314 430 280 430Q257 430 235 416.50Q213 403 203 390Q204 384 206 376Q208 369 209 359Q210 349 210 337L210 0L80 0L80 340Q80 362 77.50 380.50Q75 399 68 412.50Q61 426 47 433Q33 440 11 440L1 440L1 470L100 470Q130 470 152 461.50Q174 453 185 432L189 432Z"  horiz-adv-x="826" vert-adv-y="1000"  />

      
      <glyph glyph-name="uni6e" unicode="&#x6e;" d="M295 430Q263 430 239.50 421Q216 412 203 399Q204 393 206 385Q208 378 209 368Q210 358 210 346L210 0L80 0L80 340Q80 362 77.50 380.50Q75 399 68 412.50Q61 426 47 433Q33 440 11 440L1 440L1 470L100 470Q134 470 153.50 461.50Q173 453 184 433Q193 441 205.50 449.50Q218 458 235.50 464.50Q253 471 276 475.50Q299 480 330 480Q424 480 472 436.50Q520 393 520 296L520 0L390 0L390 297Q390 370 363 400Q336 430 295 430Z"  horiz-adv-x="575" vert-adv-y="1000"  />

      
      <glyph glyph-name="uni6f" unicode="&#x6f;" d="M381 235Q381 278 374.50 314.50Q368 351 355 378Q342 405 322 420Q302 435 276 435Q250 435 230 420Q210 405 197 378Q184 351 177.50 314.50Q171 278 171 235Q171 192 177.50 155.50Q184 119 197 92Q210 65 230 50Q250 35 276 35Q302 35 322 50Q342 65 355 92Q368 119 374.50 155.50Q381 192 381 235M36 235Q36 286 52.50 331Q69 376 100 409Q131 442 175.50 461Q220 480 276 480Q332 480 376.50 461Q421 442 452 409Q483 376 499.50 331Q516 286 516 235Q516 184 499.50 139Q483 94 452 61Q421 28 376.50 9Q332-10 276-10Q220-10 175.50 9Q131 28 100 61Q69 94 52.50 139Q36 184 36 235Z"  horiz-adv-x="552" vert-adv-y="1000"  />

      
      <glyph glyph-name="uni70" unicode="&#x70;" d="M320 480Q372 480 411.50 461Q451 442 477.50 409Q504 376 517 331Q530 286 530 235Q530 184 517 139Q504 94 477 61Q450 28 409.50 9Q369-10 315-10Q290-10 271-5.50Q252-1 238 5Q222 11 210 20L210-190L80-190L80 340Q80 362 77.50 380.50Q75 399 68 412.50Q61 426 47 433Q33 440 11 440L1 440L1 470L100 470Q134 470 153.50 461Q173 452 184 428Q193 436 205.50 445Q218 454 234.50 462Q251 470 272.50 475Q294 480 320 480M300 435Q262 435 239 421Q216 407 203 394Q204 387 206 380Q208 373 209 365Q210 357 210 346L210 65Q221 56 234 50Q245 44 260.50 39.50Q276 35 295 35Q323 35 342 50Q361 65 373 92Q385 119 390 155.50Q395 192 395 235Q395 278 390 314.50Q385 351 373.50 378Q362 405 344 420Q326 435 300 435Z"  horiz-adv-x="567" vert-adv-y="1000"  />

      
      <glyph glyph-name="uni71" unicode="&#x71;" d="M357 370Q347 388 334 402Q323 414 306.50 424.50Q290 435 267 435Q241 435 222.50 420Q204 405 193 378Q182 351 177 314.50Q172 278 172 235Q172 192 177 155.50Q182 119 194 92Q206 65 225 50Q244 35 272 35Q291 35 306.50 39.50Q322 44 333 50Q346 56 357 65L357 370M487-190L357-190L357 20Q345 11 329 5Q315-1 295.50-5.50Q276-10 252-10Q198-10 157.50 9Q117 28 90 61Q63 94 50 139Q37 184 37 235Q37 286 50 331Q63 376 89.50 409Q116 442 155 461Q194 480 247 480Q277 480 298.50 471.50Q320 463 334 452Q351 440 362 425L367 425L402 470L487 470L487-190Z"  horiz-adv-x="547" vert-adv-y="1000"  />

      
      <glyph glyph-name="uni72" unicode="&#x72;" d="M310 480Q354 480 381 460Q390 454 396 446Q402 438 406.50 431Q411 424 413 419.50Q415 415 415 415L364 376Q357 386 346 395Q337 403 324.50 409Q312 415 295 415Q263 415 241 406Q219 397 206 384Q207 377 208 369Q209 362 209.50 353.50Q210 345 210 336L210 0L80 0L80 340Q80 362 77.50 380.50Q75 399 68 412.50Q61 426 47 433Q33 440 11 440L1 440L1 470L100 470Q134 470 153.50 461.50Q173 453 184 433Q202 449 233.50 464.50Q265 480 310 480Z"  horiz-adv-x="418" vert-adv-y="1000"  />

      
      <glyph glyph-name="uni73" unicode="&#x73;" d="M209 35Q265 35 287 54.50Q309 74 309 103Q309 132 283 149.50Q257 167 219 184L167 206Q107 232 73 265Q39 298 39 347Q39 380 53 404.50Q67 429 92.50 446Q118 463 153 471.50Q188 480 229 480Q291 480 330.50 469Q370 458 390 439Q408 422 411 390Q414 358 414 320L379 320Q371 368 340 401.50Q309 435 249 435Q204 435 184 415.50Q164 396 164 367Q164 340 183 323.50Q202 307 235 293L295 268Q364 239 399 207.50Q434 176 434 123Q434 90 418.50 65.50Q403 41 376 24Q349 7 311.50-1.50Q274-10 229-10Q167-10 127.50 1Q88 12 68 31Q50 48 47 80Q44 112 44 150L79 150Q87 102 118 68.50Q149 35 209 35Z"  horiz-adv-x="468" vert-adv-y="1000"  />

      
      <glyph glyph-name="uni74" unicode="&#x74;" d="M211 470L321 470L321 425L211 425L211 130Q211 74 224.50 54.50Q238 35 263 35Q279 35 293.50 39Q308 43 319 48Q331 54 342 62L356 34Q343 22 325 12Q309 4 284.50-3Q260-10 226-10Q158-10 119.50 27Q81 64 81 136L81 425L21 425L21 470L81 470L81 560L131 620L211 620L211 470Z"  horiz-adv-x="354" vert-adv-y="1000"  />

      
      <glyph glyph-name="uni75" unicode="&#x75;" d="M70 340Q70 385 57.50 412.50Q45 440 0 440L-10 440L-10 470L110 470Q136 470 153.50 463.50Q171 457 181.50 442Q192 427 196 402Q200 377 200 340L200 173Q200 96 222 65.50Q244 35 285 35Q308 35 324.50 45Q341 55 352 67Q365 81 375 100L375 470L505 470L505 0L420 0L385 45L380 45Q365 29 347 17Q331 6 308-2Q285-10 255-10Q161-10 115.50 33.50Q70 77 70 174L70 340Z"  horiz-adv-x="565" vert-adv-y="1000"  />

      
      <glyph glyph-name="uni76" unicode="&#x76;" d="M77 355Q51 410 32 433Q13 456-12 458L-12 478Q-8 478 5 479Q18 480 25 480Q55 480 82 475Q109 470 133 456.50Q157 443 178 418.50Q199 394 217 355L305 163L441 470L495 470L282-10L246-10L77 355Z"  horiz-adv-x="500" vert-adv-y="1000"  />

      
      <glyph glyph-name="uni77" unicode="&#x77;" d="M588 154L710 470L763 470L579-10L533-10L403 271L287-10L242-10L79 355Q54 411 33 434Q12 457-14 459L-14 478Q-12 478-5.50 478.50Q1 479 8.50 479Q16 479 23.50 479.50Q31 480 34 480Q66 480 92 474Q118 468 140 454Q162 440 180.50 416Q199 392 216 355L301 164L368 324L354 355Q329 410 308.50 433.50Q288 457 266 459L266 478Q270 478 283.50 479Q297 480 304 480Q336 480 363.50 474.50Q391 469 415 454.50Q439 440 459 416Q479 392 496 355L588 154Z"  horiz-adv-x="775" vert-adv-y="1000"  />

      
      <glyph glyph-name="uni78" unicode="&#x78;" d="M192 209L96 370Q75 406 50.50 426Q26 446 3 450L3 470L98 470Q147 470 175.50 448.50Q204 427 226 390L274 309L405 470L472 470L303 262L400 100Q421 64 445.50 44Q470 24 493 20L493 0L398 0Q349 0 320.50 21.50Q292 43 270 80L221 161L90 0L23 0L192 209Z"  horiz-adv-x="496" vert-adv-y="1000"  />

      
      <glyph glyph-name="uni79" unicode="&#x79;" d="M290-65Q275-106 258-132Q241-158 222-173Q203-188 180.50-194Q158-200 132-200L92-200L92-165Q118-165 139.50-160.50Q161-156 179-145Q197-134 211-115.50Q225-97 236-68L257-14L77 380Q44 453-16 460L-16 480L72 480Q117 480 151 458.50Q185 437 202 400L317 148L439 470L492 470L290-65Z"  horiz-adv-x="509" vert-adv-y="1000"  />

      
      <glyph glyph-name="uni7a" unicode="&#x7a;" d="M480 470L196 45L459 45L459 0L39 0L39 31L302 425L184 425Q120 425 94.50 402Q69 379 69 330L39 330L39 390Q39 405 42.50 419.50Q46 434 55.50 445Q65 456 81.50 463Q98 470 124 470L480 470Z"  horiz-adv-x="493" vert-adv-y="1000"  />

      
      <glyph glyph-name="uni7b" unicode="&#x7b;" d="M113 240Q176 223 204.50 190Q233 157 233 100L233-72Q233-117 246-143.50Q259-170 293-176L293-211Q240-207 204-191Q168-175 145.50-150.50Q123-126 113-95Q103-64 103-30L103 110Q103 130 98 149Q93 168 81 183.50Q69 199 50 209.50Q31 220 3 224L3 256Q31 260 50 270.50Q69 281 81 296.50Q93 312 98 331Q103 350 103 370L103 510Q103 544 113 575Q123 606 145.50 630.50Q168 655 204 671Q240 687 293 691L293 656Q259 650 246 623.50Q233 597 233 552L233 380Q233 323 204.50 290Q176 257 113 240Z"  horiz-adv-x="312" vert-adv-y="1000"  />

      
      <glyph glyph-name="uni7c" unicode="&#x7c;" d="M196 680L196-190L66-190L66 680L196 680Z"  horiz-adv-x="262" vert-adv-y="1000"  />

      
      <glyph glyph-name="uni7d" unicode="&#x7d;" d="M199 240Q136 257 107.50 290Q79 323 79 380L79 552Q79 597 66 623.50Q53 650 19 656L19 691Q71 687 107.50 671Q144 655 166.50 630.50Q189 606 199 575Q209 544 209 510L209 370Q209 350 214 331Q219 312 231 296.50Q243 281 262 270.50Q281 260 309 256L309 224Q281 220 262 209.50Q243 199 231 183.50Q219 168 214 149Q209 130 209 110L209-30Q209-64 199-95Q189-126 166.50-150.50Q144-175 107.50-191Q71-207 19-211L19-176Q53-170 66-143.50Q79-117 79-72L79 100Q79 157 107.50 190Q136 223 199 240Z"  horiz-adv-x="312" vert-adv-y="1000"  />

      
      <glyph glyph-name="uni7e" unicode="&#x7e;" d="M171 343Q216 343 254 329.50Q292 316 327 300Q359 286 388 274.50Q417 263 441 263Q483 263 502 278Q521 293 521 323L561 323Q561 245 532 206Q503 167 441 167Q396 167 358 180.50Q320 194 285 210Q253 224 224 235.50Q195 247 171 247Q129 247 110 232Q91 217 91 187L51 187Q51 265 80 304Q109 343 171 343Z"  horiz-adv-x="611" vert-adv-y="1000"  />

      
      <glyph glyph-name="unia1" unicode="&#xa1;" d="M186-194L53-194L72 311L166 311L186-194M180 419Q180 392 164 375Q148 358 119 358Q90 358 74 375Q58 392 58 419Q58 446 74 463Q90 480 119 480Q148 480 164 463Q180 446 180 419Z"  horiz-adv-x="239" vert-adv-y="1000"  />

      
      <glyph glyph-name="unia2" unicode="&#xa2;" d="M241-8Q188-4 149 17Q110 38 83.50 70.50Q57 103 44 145.50Q31 188 31 235Q31 282 44 324Q57 366 83.50 398.50Q110 431 149 452Q188 473 241 478L241 520L301 520L301 479Q346 477 377.50 469Q409 461 426 445Q445 426 448 394Q451 362 451 305L421 305Q417 365 386 397Q355 429 301 434L301 35Q325 36 344 43Q363 50 378.50 61Q394 72 407.50 86.50Q421 101 434 118L465 95Q455 80 441.50 63Q428 46 408.50 31.50Q389 17 362.50 6Q336-5 301-8L301-50L241-50L241-8M166 235Q166 79 241 45L241 424Q206 407 186 360Q166 313 166 235Z"  horiz-adv-x="496" vert-adv-y="1000"  />

      
      <glyph glyph-name="unia3" unicode="&#xa3;" d="M101 460Q101 524 120.50 564.50Q140 605 170 628.50Q200 652 236 661Q272 670 306 670Q328 670 351 668Q374 666 394 662Q414 658 430.50 651Q447 644 456 635Q475 616 478 588.50Q481 561 481 535L426 535Q415 584 389.50 604.50Q364 625 326 625Q307 625 290 617.50Q273 610 260 591Q247 572 239 540.50Q231 509 231 460L231 365L361 365L361 320L231 320L231 220Q231 149 209 108Q187 67 161 45L351 45Q411 45 438.50 75Q466 105 466 165L496 165L496 80Q496 65 492.50 50.50Q489 36 479.50 25Q470 14 453.50 7Q437 0 411 0L36 0L36 30Q55 36 67.50 48Q80 60 87.50 82Q95 104 98 137.50Q101 171 101 220L101 320L41 320L41 365L101 365L101 460Z"  horiz-adv-x="535" vert-adv-y="1000"  />

      
      <glyph glyph-name="unia4" unicode="&#xa4;" d="M306 330Q330 330 353.50 337.50Q377 345 395.50 362Q414 379 425 408Q436 437 436 480Q436 517 424 544Q412 571 394 587.50Q376 604 354 612Q332 620 311 620Q292 620 276.50 619.50Q261 619 246 615L246 330L306 330M496 190L246 190L246 0L116 0L116 190L66 190L66 235L116 235L116 285L66 285L66 330L116 330L116 535Q116 556 113.50 573Q111 590 103.50 603Q96 616 82 623Q68 630 46 630L36 630L36 660L311 660Q365 660 413.50 649.50Q462 639 498 617Q534 595 555 561Q576 527 576 480Q576 429 555 392.50Q534 356 497.50 332Q461 308 411.50 296.50Q362 285 306 285L246 285L246 235L496 235L496 190Z"  horiz-adv-x="605" vert-adv-y="1000"  />

      
      <glyph glyph-name="unia5" unicode="&#xa5;" d="M429 345L623 660L688 660L461 291L461 265L547 265L547 220L461 220L461 180L547 180L547 135L461 135L461 0L331 0L331 135L247 135L247 180L331 180L331 220L247 220L247 265L330 265L154 530Q141 549 125 568Q109 587 91.50 602.50Q74 618 56 628Q38 638 21 640L21 660L130 660Q158 660 182.50 650Q207 640 227.50 624Q248 608 264.50 588.50Q281 569 293 550L429 345Z"  horiz-adv-x="711" vert-adv-y="1000"  />

      
      <glyph glyph-name="unia6" unicode="&#xa6;" d="M199 680L199 327L69 327L69 680L199 680M199 163L199-190L69-190L69 163L199 163Z"  horiz-adv-x="268" vert-adv-y="1000"  />

      
      <glyph glyph-name="unia7" unicode="&#xa7;" d="M180 537Q180 512 188 493.50Q196 475 209.50 460Q223 445 241 433Q259 421 279 408Q302 393 325.50 376.50Q349 360 367.50 340.50Q386 321 398 297.50Q410 274 410 245Q410 194 378.50 157Q347 120 296 100Q316 86 334 71Q352 56 365.50 38Q379 20 387-1Q395-22 395-47Q395-87 380.50-116Q366-145 342-163.50Q318-182 286.50-191Q255-200 220-200Q174-200 136.50-189.50Q99-179 79-159Q57-137 53.50-112Q50-87 50-49L82-49Q90-98 117.50-126.50Q145-155 190-155Q228-155 249.50-135Q271-115 271-67Q271-42 263-23.50Q255-5 241 10Q227 25 209 37.50Q191 50 171 63Q148 78 124.50 94Q101 110 82 129.50Q63 149 51.50 172.50Q40 196 40 225Q40 272 72 310.50Q104 349 152 370Q112 397 83.50 432Q55 467 55 517Q55 557 69.50 586Q84 615 108 633.50Q132 652 163.50 661Q195 670 230 670Q276 670 313.50 659.50Q351 649 371 629Q393 607 396.50 582Q400 557 400 519L368 519Q360 568 332.50 596.50Q305 625 260 625Q222 625 201 605Q180 585 180 537M301 215Q301 256 269 287Q237 318 192 344Q171 336 160 314.50Q149 293 149 255Q149 234 157.50 216Q166 198 181 182Q196 166 216 151.50Q236 137 258 125Q279 133 290 154Q301 175 301 215Z"  horiz-adv-x="450" vert-adv-y="1000"  />

      
      <glyph glyph-name="unia8" unicode="&#xa8;" d="M112 746Q112 723 97 706.50Q82 690 56 690Q30 690 15 706.50Q0 723 0 746Q0 769 15 785.50Q30 802 56 802Q82 802 97 785.50Q112 769 112 746M282 746Q282 723 267 706.50Q252 690 226 690Q200 690 185 706.50Q170 723 170 746Q170 769 185 785.50Q200 802 226 802Q252 802 267 785.50Q282 769 282 746Z"  horiz-adv-x="282" vert-adv-y="1000"  />

      
      <glyph glyph-name="unia9" unicode="&#xa9;" d="M403 688Q483 688 551 661Q619 634 668.50 586.50Q718 539 745.50 473.50Q773 408 773 330Q773 252 745.50 186.50Q718 121 668.50 73.50Q619 26 551-1Q483-28 403-28Q323-28 255-1Q187 26 137.50 73.50Q88 121 60.50 186.50Q33 252 33 330Q33 408 60.50 473.50Q88 539 137.50 586.50Q187 634 255 661Q323 688 403 688M403 17Q469 17 524 40Q579 63 619 104.50Q659 146 681 203.50Q703 261 703 330Q703 399 681 456.50Q659 514 619 555.50Q579 597 524 620Q469 643 403 643Q337 643 282 620Q227 597 187 555.50Q147 514 125 456.50Q103 399 103 330Q103 261 125 203.50Q147 146 187 104.50Q227 63 282 40Q337 17 403 17M553 409Q541 473 510.50 503Q480 533 423 533Q394 533 369 522.50Q344 512 324.50 488Q305 464 294 424.50Q283 385 283 327Q283 291 291 256.50Q299 222 316 194.50Q333 167 359.50 150.50Q386 134 423 134Q508 134 567 230L592 212Q560 152 514 127Q468 102 403 102Q353 102 313.50 119.50Q274 137 246 167.50Q218 198 203 239Q188 280 188 327Q188 377 205 420.50Q222 464 251 496Q280 528 319.50 546.50Q359 565 403 565Q467 565 506.50 549Q546 533 563 512Q579 493 581.50 465.50Q584 438 584 409L553 409Z"  horiz-adv-x="806" vert-adv-y="1000"  />

      
      <glyph glyph-name="uniaa" unicode="&#xaa;" d="M196 522L180 522Q151 522 132.50 506.50Q114 491 114 466Q114 440 125.50 430.50Q137 421 150 421Q167 421 178.50 432.50Q190 444 196 455L196 522M222 401L203 426L200 426Q191 416 175 406Q159 396 131 396Q95 396 68.50 412Q42 428 42 466Q42 504 76.50 525.50Q111 547 180 547L196 547Q196 575 192 592.50Q188 610 181.50 619.50Q175 629 166.50 632Q158 635 150 635Q122 635 108.50 621Q95 607 90 583L61 583Q61 597 62.50 613.50Q64 630 75 641Q85 652 108.50 656Q132 660 160 660Q182 660 201.50 656Q221 652 236 640Q251 628 259.50 605.50Q268 583 268 547L268 401L222 401Z"  horiz-adv-x="324" vert-adv-y="1000"  />

      
      <glyph glyph-name="uniab" unicode="&#xab;" d="M308 370L372 370L310 225L372 80L308 80L206 225L308 370M253 30L189 30L31 225L189 420L253 420L156 226L253 30Z"  horiz-adv-x="425" vert-adv-y="1000"  />

      
      <glyph glyph-name="uniac" unicode="&#xac;" d="M513 220L58 220L58 290L603 290L603 115L513 115L513 220Z"  horiz-adv-x="662" vert-adv-y="1000"  />

      
      <glyph glyph-name="uniad" unicode="&#xad;" d="M58 312L337 312L337 217L58 217L58 312Z"  horiz-adv-x="395" vert-adv-y="1000"  />

      
      <glyph glyph-name="uniae" unicode="&#xae;" d="M403 685Q483 685 551 658.50Q619 632 668.50 585Q718 538 745.50 473Q773 408 773 330Q773 252 745.50 187Q718 122 668.50 75Q619 28 551 1.50Q483-25 403-25Q323-25 255 1.50Q187 28 137.50 75Q88 122 60.50 187Q33 252 33 330Q33 408 60.50 473Q88 538 137.50 585Q187 632 255 658.50Q323 685 403 685M403 20Q469 20 524 42.50Q579 65 619 106Q659 147 681 204Q703 261 703 330Q703 399 681 456Q659 513 619 554Q579 595 524 617.50Q469 640 403 640Q337 640 282 617.50Q227 595 187 554Q147 513 125 456Q103 399 103 330Q103 261 125 204Q147 147 187 106Q227 65 282 42.50Q337 20 403 20M378 349Q415 349 439 369Q463 389 463 438Q463 486 439 506Q415 526 378 526Q370 526 364.50 525.50Q359 525 354 525Q349 524 344 524L344 351Q350 350 355 350Q360 349 365.50 349Q371 349 378 349M364 320L344 320L344 125L256 125L256 477Q256 505 251 522Q246 539 226 539L208 539L208 555L381 555Q415 555 447 549.50Q479 544 503.50 530.50Q528 517 543 493.50Q558 470 558 434Q558 408 548.50 389.50Q539 371 524.50 358.50Q510 346 491.50 338Q473 330 455 326L523 216Q546 180 564.50 161Q583 142 607 139L607 125Q607 124 594 121Q581 118 555 118Q517 118 490.50 138.50Q464 159 431 212L364 320Z"  horiz-adv-x="806" vert-adv-y="1000"  />

      
      <glyph glyph-name="unib0" unicode="&#xb0;" d="M208 620Q170 620 144 592.50Q118 565 118 520Q118 475 144 447.50Q170 420 208 420Q246 420 272 447.50Q298 475 298 520Q298 565 272 592.50Q246 620 208 620M208 680Q249 680 281 667.50Q313 655 334.50 633.50Q356 612 367 583Q378 554 378 520Q378 486 367 457Q356 428 334.50 406.50Q313 385 281 372.50Q249 360 208 360Q167 360 135 372.50Q103 385 81.50 406.50Q60 428 49 457Q38 486 38 520Q38 554 49 583Q60 612 81.50 633.50Q103 655 135 667.50Q167 680 208 680Z"  horiz-adv-x="416" vert-adv-y="1000"  />

      
      <glyph glyph-name="unib1" unicode="&#xb1;" d="M49 55L49 125L246 125L246 295L49 295L49 365L246 365L246 560L336 560L336 365L533 365L533 295L336 295L336 125L533 125L533 55L49 55Z"  horiz-adv-x="582" vert-adv-y="1000"  />

      
      <glyph glyph-name="unib2" unicode="&#xb2;" d="M191 404Q219 404 233.50 414Q248 424 248 448L263 448L263 413Q263 399 255.50 388Q248 377 224 377L53 377L53 400Q88 436 114 462Q140 488 157.50 510.50Q175 533 183.50 554.50Q192 576 192 602Q192 637 180 649.50Q168 662 147 662Q116 662 98.50 641.50Q81 621 74 583L58 583Q58 600 59.50 621Q61 642 69 653Q82 668 106 678.50Q130 689 160 689Q178 689 196.50 685Q215 681 230 671.50Q245 662 254.50 645Q264 628 264 602Q264 573 251.50 549.50Q239 526 218 503.50Q197 481 169 457.50Q141 434 110 404L191 404Z"  horiz-adv-x="318" vert-adv-y="1000"  />

      
      <glyph glyph-name="unib3" unicode="&#xb3;" d="M116 547Q128 550 139 550.50Q150 551 155 551Q174 551 194 546Q214 541 230 530Q246 519 256 502.50Q266 486 266 462Q266 433 254 414.50Q242 396 224.50 385.50Q207 375 187.50 371Q168 367 154 367Q112 367 87 381Q62 395 43 418L57 430Q90 394 140 394Q160 394 177 409.50Q194 425 194 462Q194 498 175.50 511Q157 524 134 524Q123 524 114 523Q105 522 91 518L75 546L193 653L115 653Q65 653 65 610L52 610L52 643Q52 657 59.50 668.50Q67 680 91 680L244 680L244 662L116 547Z"  horiz-adv-x="304" vert-adv-y="1000"  />

      
      <glyph glyph-name="unib4" unicode="&#xb4;" d="M75 700L20 700L62 840L181 840L75 700Z"  horiz-adv-x="201" vert-adv-y="1000"  />

      
      <glyph glyph-name="unib5" unicode="&#xb5;" d="M273-10Q243-10 219.50 1Q196 12 173 35L173-190L63-190L63 470L193 470L193 235Q193 133 218 84Q243 35 288 35Q322 35 342 54.50Q362 74 373 100L373 470L503 470L503 0L418 0L383 45L378 45Q367 29 352 17Q338 6 318.50-2Q299-10 273-10Z"  horiz-adv-x="550" vert-adv-y="1000"  />

      
      <glyph glyph-name="unib6" unicode="&#xb6;" d="M256 270Q207 270 165 284.50Q123 299 92 324.50Q61 350 43.50 386Q26 422 26 465Q26 508 43.50 544Q61 580 92 605.50Q123 631 165 645.50Q207 660 256 660L596 660L596 615L541 615L541-190L421-190L421 615L376 615L376-190L256-190L256 270Z"  horiz-adv-x="634" vert-adv-y="1000"  />

      
      <glyph glyph-name="unib7" unicode="&#xb7;" d="M174 331Q174 304 158 287Q142 270 113 270Q84 270 68 287Q52 304 52 331Q52 358 68 375Q84 392 113 392Q142 392 158 375Q174 358 174 331Z"  horiz-adv-x="226" vert-adv-y="1000"  />

      
      <glyph glyph-name="unib8" unicode="&#xb8;" d="M45 0L110 0L110-50Q152-50 176-71Q200-92 200-128Q200-163 176-184.50Q152-206 110-206L40-206L40-160L90-160Q109-160 119.50-150.50Q130-141 130-128Q130-114 119.50-104.50Q109-95 90-95L45-95L45 0Z"  horiz-adv-x="200" vert-adv-y="1000"  />

      
      <glyph glyph-name="unib9" unicode="&#xb9;" d="M152 377L80 377L80 614L46 594L30 616L98 680L152 680L152 377Z"  horiz-adv-x="214" vert-adv-y="1000"  />

      
      <glyph glyph-name="uniba" unicode="&#xba;" d="M168 664Q157 664 147 658Q137 652 130 636.50Q123 621 119 594.50Q115 568 115 528Q115 488 119 462Q123 436 130 420.50Q137 405 147 398.50Q157 392 168 392Q180 392 190 398.50Q200 405 207 420.50Q214 436 218 462Q222 488 222 528Q222 568 218 594.50Q214 621 206.50 636.50Q199 652 189.50 658Q180 664 168 664M168 689Q202 689 226 676Q250 663 265 641Q280 619 287 590Q294 561 294 528Q294 496 287 466.50Q280 437 265 415Q250 393 226 380Q202 367 168 367Q135 367 111 380Q87 393 72 415Q57 437 50 466.50Q43 496 43 528Q43 561 50 590Q57 619 72 641Q87 663 111 676Q135 689 168 689Z"  horiz-adv-x="337" vert-adv-y="1000"  />

      
      <glyph glyph-name="unibb" unicode="&#xbb;" d="M219 225L117 80L53 80L115 225L53 370L117 370L219 225M269 226L172 420L236 420L394 225L236 30L172 30L269 226Z"  horiz-adv-x="425" vert-adv-y="1000"  />

      
      <glyph glyph-name="unibc" unicode="&#xbc;" d="M26 0L481 660L576 660L121 0L26 0M539 100L573 100L573 73L539 73L539 0L467 0L467 73L322 73L322 97L472 304L539 304L539 100M467 100L467 246L361 100L467 100M185 377L113 377L113 614L79 594L63 616L131 680L185 680L185 377Z"  horiz-adv-x="617" vert-adv-y="1000"  />

      
      <glyph glyph-name="unibd" unicode="&#xbd;" d="M26 0L481 660L576 660L121 0L26 0M185 377L113 377L113 614L79 594L63 616L131 680L185 680L185 377M510 27Q538 27 552.50 37Q567 47 567 71L582 71L582 36Q582 22 574.50 11Q567 0 543 0L372 0L372 23Q407 59 433 85Q459 111 476.50 133.50Q494 156 502.50 177.50Q511 199 511 225Q511 260 499 272.50Q487 285 466 285Q435 285 417.50 264.50Q400 244 393 206L377 206Q377 223 378.50 244Q380 265 388 276Q401 291 425 301.50Q449 312 479 312Q497 312 515.50 308Q534 304 549 294.50Q564 285 573.50 268Q583 251 583 225Q583 196 570.50 172.50Q558 149 537 126.50Q516 104 488 80.50Q460 57 429 27L510 27Z"  horiz-adv-x="632" vert-adv-y="1000"  />

      
      <glyph glyph-name="unibe" unicode="&#xbe;" d="M45 0L500 660L595 660L140 0L45 0M548 100L582 100L582 73L548 73L548 0L476 0L476 73L331 73L331 97L481 304L548 304L548 100M476 100L476 246L370 100L476 100M110 547Q122 550 133 550.50Q144 551 149 551Q168 551 188 546Q208 541 224 530Q240 519 250 502.50Q260 486 260 462Q260 433 248 414.50Q236 396 218.50 385.50Q201 375 181.50 371Q162 367 148 367Q106 367 81 381Q56 395 37 418L51 430Q84 394 134 394Q154 394 171 409.50Q188 425 188 462Q188 498 169.50 511Q151 524 128 524Q117 524 108 523Q99 522 85 518L69 546L187 653L109 653Q59 653 59 610L46 610L46 643Q46 657 53.50 668.50Q61 680 85 680L238 680L238 662L110 547Z"  horiz-adv-x="626" vert-adv-y="1000"  />

      
      <glyph glyph-name="unibf" unicode="&#xbf;" d="M270-167Q299-167 325-156.50Q351-146 372.50-123.50Q394-101 410.50-65.50Q427-30 436 21L466 21Q466-23 463-64Q460-105 440-131Q426-147 404.50-161.50Q383-176 357-187.50Q331-199 301-205.50Q271-212 240-212Q194-212 155-199Q116-186 87.50-161.50Q59-137 42.50-101Q26-65 26-19Q26 23 40 54Q54 85 75 109.50Q96 134 121 155.50Q146 177 168 200Q190 223 206 249.50Q222 276 225 312L293 312Q291 275 281 246.50Q271 218 257 193.50Q243 169 227 147Q211 125 197.50 100.50Q184 76 175 47Q166 18 166-19Q166-61 174-89.50Q182-118 195.50-135.50Q209-153 228-160Q247-167 270-167M198 421Q198 448 214 465Q230 482 259 482Q288 482 304 465Q320 448 320 421Q320 394 304 377Q288 360 259 360Q230 360 214 377Q198 394 198 421Z"  horiz-adv-x="492" vert-adv-y="1000"  />

      
      <glyph glyph-name="unic0" unicode="&#xc0;" d="M572 126Q590 82 616 56Q642 30 676 26L676 1Q668-1 653.50-2.50Q639-4 628-4Q604-4 576.50 0.50Q549 5 522.50 18.50Q496 32 472.50 57.50Q449 83 431 126L408 182L142 182L60 0L8 0L303 660L348 660L572 126M163 227L389 227L279 488L163 227M189 841L308 841L350 701L295 701L189 841Z"  horiz-adv-x="647" vert-adv-y="1000"  />

      
      <glyph glyph-name="unic1" unicode="&#xc1;" d="M572 126Q590 82 616 56Q642 30 676 26L676 1Q668-1 653.50-2.50Q639-4 628-4Q604-4 576.50 0.50Q549 5 522.50 18.50Q496 32 472.50 57.50Q449 83 431 126L408 182L142 182L60 0L8 0L303 660L348 660L572 126M163 227L389 227L279 488L163 227M356 700L301 700L343 840L462 840L356 700Z"  horiz-adv-x="647" vert-adv-y="1000"  />

      
      <glyph glyph-name="unic2" unicode="&#xc2;" d="M572 126Q590 82 616 56Q642 30 676 26L676 1Q668-1 653.50-2.50Q639-4 628-4Q604-4 576.50 0.50Q549 5 522.50 18.50Q496 32 472.50 57.50Q449 83 431 126L408 182L142 182L60 0L8 0L303 660L348 660L572 126M163 227L389 227L279 488L163 227M323 765L238 685L178 685L258 810L388 810L468 685L408 685L323 765Z"  horiz-adv-x="647" vert-adv-y="1000"  />

      
      <glyph glyph-name="unic3" unicode="&#xc3;" d="M572 126Q590 82 616 56Q642 30 676 26L676 1Q668-1 653.50-2.50Q639-4 628-4Q604-4 576.50 0.50Q549 5 522.50 18.50Q496 32 472.50 57.50Q449 83 431 126L408 182L142 182L60 0L8 0L303 660L348 660L572 126M163 227L389 227L279 488L163 227M210 700Q210 760 229 780Q248 800 278 800Q295 800 307.50 793.50Q320 787 330.50 779.50Q341 772 350.50 766Q360 760 370 760Q387 760 396 772.50Q405 785 405 800L445 800Q445 740 426.50 720Q408 700 378 700Q361 700 348.50 706Q336 712 325.50 719.50Q315 727 305 733.50Q295 740 285 740Q268 740 259 727.50Q250 715 250 700L210 700Z"  horiz-adv-x="647" vert-adv-y="1000"  />

      
      <glyph glyph-name="unic4" unicode="&#xc4;" d="M572 126Q590 82 616 56Q642 30 676 26L676 1Q668-1 653.50-2.50Q639-4 628-4Q604-4 576.50 0.50Q549 5 522.50 18.50Q496 32 472.50 57.50Q449 83 431 126L408 182L142 182L60 0L8 0L303 660L348 660L572 126M163 227L389 227L279 488L163 227M295 746Q295 723 280 706.50Q265 690 239 690Q213 690 198 706.50Q183 723 183 746Q183 769 198 785.50Q213 802 239 802Q265 802 280 785.50Q295 769 295 746M465 746Q465 723 450 706.50Q435 690 409 690Q383 690 368 706.50Q353 723 353 746Q353 769 368 785.50Q383 802 409 802Q435 802 450 785.50Q465 769 465 746Z"  horiz-adv-x="647" vert-adv-y="1000"  />

      
      <glyph glyph-name="unic5" unicode="&#xc5;" d="M420 705Q420 672 401.50 649.50Q383 627 365 619L572 126Q590 82 616 56Q642 30 676 26L676 1Q668-1 653.50-2.50Q639-4 628-4Q604-4 576.50 0.50Q549 5 522.50 18.50Q496 32 472.50 57.50Q449 83 431 126L408 182L142 182L60 0L8 0L284 619Q266 628 248 650Q230 672 230 705Q230 747 256.50 773.50Q283 800 325 800Q367 800 393.50 773.50Q420 747 420 705M163 227L389 227L279 488L163 227M348 660Q370 675 370 705Q370 728 357 741.50Q344 755 325 755Q306 755 293 741.50Q280 728 280 705Q280 675 303 660L348 660Z"  horiz-adv-x="647" vert-adv-y="1000"  />

      
      <glyph glyph-name="unic6" unicode="&#xc6;" d="M724 660Q750 660 766.50 653Q783 646 792.50 635Q802 624 805.50 609.50Q809 595 809 580L809 495L779 495Q779 559 746.50 587Q714 615 654 615L493 615L493 365L753 365L753 320L493 320L493 45L664 45Q719 45 757.50 69.50Q796 94 822 159L849 149L820 70Q809 38 791.50 19Q774 0 733 0L363 0L363 190L145 190L38 0L-22 0L348 660L724 660M363 235L363 579L170 235L363 235Z"  horiz-adv-x="868" vert-adv-y="1000"  />

      
      <glyph glyph-name="unic7" unicode="&#xc7;" d="M600 447Q581 538 530.50 586.50Q480 635 397 635Q351 635 311 620Q271 605 241 568.50Q211 532 194 471.50Q177 411 177 320Q177 263 189 209.50Q201 156 227.50 115Q254 74 295.50 49.50Q337 25 397 25Q466 25 525 61.50Q584 98 620 168L655 141Q610 61 546.50 22.50Q483-16 387-19L387-50Q429-50 453-71Q477-92 477-128Q477-163 453-184.50Q429-206 387-206L317-206L317-160L367-160Q386-160 396.50-150.50Q407-141 407-128Q407-114 396.50-104.50Q386-95 367-95L322-95L322-17Q254-10 201 18.50Q148 47 111.50 92Q75 137 56 195Q37 253 37 320Q37 396 62 461.50Q87 527 131 575.50Q175 624 235.50 652Q296 680 367 680Q461 680 518.50 655.50Q576 631 604 599Q624 573 627 532Q630 491 630 447L600 447Z"  horiz-adv-x="679" vert-adv-y="1000"  />

      
      <glyph glyph-name="unic8" unicode="&#xc8;" d="M456 660Q482 660 498.50 653Q515 646 524.50 635Q534 624 537.50 609.50Q541 595 541 580L541 495L511 495Q511 559 478.50 587Q446 615 386 615L225 615L225 365L485 365L485 320L225 320L225 45L396 45Q451 45 489.50 69.50Q528 94 554 159L581 149L552 70Q541 38 523.50 19Q506 0 465 0L95 0L95 530Q95 575 82.50 602.50Q70 630 25 630L15 630L15 660L456 660M192 841L311 841L353 701L298 701L192 841Z"  horiz-adv-x="600" vert-adv-y="1000"  />

      
      <glyph glyph-name="unic9" unicode="&#xc9;" d="M456 660Q482 660 498.50 653Q515 646 524.50 635Q534 624 537.50 609.50Q541 595 541 580L541 495L511 495Q511 559 478.50 587Q446 615 386 615L225 615L225 365L485 365L485 320L225 320L225 45L396 45Q451 45 489.50 69.50Q528 94 554 159L581 149L552 70Q541 38 523.50 19Q506 0 465 0L95 0L95 530Q95 575 82.50 602.50Q70 630 25 630L15 630L15 660L456 660M335 700L280 700L322 840L441 840L335 700Z"  horiz-adv-x="600" vert-adv-y="1000"  />

      
      <glyph glyph-name="unica" unicode="&#xca;" d="M456 660Q482 660 498.50 653Q515 646 524.50 635Q534 624 537.50 609.50Q541 595 541 580L541 495L511 495Q511 559 478.50 587Q446 615 386 615L225 615L225 365L485 365L485 320L225 320L225 45L396 45Q451 45 489.50 69.50Q528 94 554 159L581 149L552 70Q541 38 523.50 19Q506 0 465 0L95 0L95 530Q95 575 82.50 602.50Q70 630 25 630L15 630L15 660L456 660M305 802L220 722L160 722L240 847L370 847L450 722L390 722L305 802Z"  horiz-adv-x="600" vert-adv-y="1000"  />

      
      <glyph glyph-name="unicb" unicode="&#xcb;" d="M456 660Q482 660 498.50 653Q515 646 524.50 635Q534 624 537.50 609.50Q541 595 541 580L541 495L511 495Q511 559 478.50 587Q446 615 386 615L225 615L225 365L485 365L485 320L225 320L225 45L396 45Q451 45 489.50 69.50Q528 94 554 159L581 149L552 70Q541 38 523.50 19Q506 0 465 0L95 0L95 530Q95 575 82.50 602.50Q70 630 25 630L15 630L15 660L456 660M268 786Q268 763 253 746.50Q238 730 212 730Q186 730 171 746.50Q156 763 156 786Q156 809 171 825.50Q186 842 212 842Q238 842 253 825.50Q268 809 268 786M448 786Q448 763 433 746.50Q418 730 392 730Q366 730 351 746.50Q336 763 336 786Q336 809 351 825.50Q366 842 392 842Q418 842 433 825.50Q448 809 448 786Z"  horiz-adv-x="600" vert-adv-y="1000"  />

      
      <glyph glyph-name="unicc" unicode="&#xcc;" d="M79 660L209 660L209 130Q209 85 221.50 57.50Q234 30 279 30L289 30L289 0L169 0Q143 0 125.50 6Q108 12 97.50 27Q87 42 83 67Q79 92 79 130L79 660M21 841L140 841L182 701L127 701L21 841Z"  horiz-adv-x="304" vert-adv-y="1000"  />

      
      <glyph glyph-name="unicd" unicode="&#xcd;" d="M79 660L209 660L209 130Q209 85 221.50 57.50Q234 30 279 30L289 30L289 0L169 0Q143 0 125.50 6Q108 12 97.50 27Q87 42 83 67Q79 92 79 130L79 660M166 700L111 700L153 840L272 840L166 700Z"  horiz-adv-x="304" vert-adv-y="1000"  />

      
      <glyph glyph-name="unice" unicode="&#xce;" d="M79 660L209 660L209 130Q209 85 221.50 57.50Q234 30 279 30L289 30L289 0L169 0Q143 0 125.50 6Q108 12 97.50 27Q87 42 83 67Q79 92 79 130L79 660M145 775L60 695L0 695L80 820L210 820L290 695L230 695L145 775Z"  horiz-adv-x="304" vert-adv-y="1000"  />

      
      <glyph glyph-name="unicf" unicode="&#xcf;" d="M79 660L209 660L209 130Q209 85 221.50 57.50Q234 30 279 30L289 30L289 0L169 0Q143 0 125.50 6Q108 12 97.50 27Q87 42 83 67Q79 92 79 130L79 660M117 771Q117 748 102 731.50Q87 715 61 715Q35 715 20 731.50Q5 748 5 771Q5 794 20 810.50Q35 827 61 827Q87 827 102 810.50Q117 794 117 771M283 771Q283 748 268 731.50Q253 715 227 715Q201 715 186 731.50Q171 748 171 771Q171 794 186 810.50Q201 827 227 827Q253 827 268 810.50Q283 794 283 771Z"  horiz-adv-x="304" vert-adv-y="1000"  />

      
      <glyph glyph-name="unid0" unicode="&#xd0;" d="M287 660Q390 660 467 637.50Q544 615 596 573Q648 531 674 470.50Q700 410 700 334Q700 260 675 198.50Q650 137 601 93Q552 49 479.50 24.50Q407 0 313 0L95 0L95 305L25 305L25 355L95 355L95 530Q95 575 82.50 602.50Q70 630 25 630L15 630L15 660L287 660M300 620Q285 620 271.50 619Q258 618 247 616Q235 614 225 613L225 355L300 355L300 305L225 305L225 47Q235 45 247 43Q268 40 300 40L310 40Q362 40 406 60Q450 80 482 117.50Q514 155 532 209Q550 263 550 330Q550 396 532.50 449.50Q515 503 483 541Q451 579 406.50 599.50Q362 620 308 620L300 620Z"  horiz-adv-x="736" vert-adv-y="1000"  />

      
      <glyph glyph-name="unid1" unicode="&#xd1;" d="M568 200L568 660L618 660L618-3L572-3L148 495L148 0L98 0L98 540Q98 559 94 575.50Q90 592 79.50 604Q69 616 51.50 623Q34 630 8 630L3 630L3 660L73 660Q130 660 165.50 645Q201 630 224 600L568 200M235 694Q235 754 254 774Q273 794 303 794Q320 794 332.50 787.50Q345 781 355.50 773.50Q366 766 375.50 760Q385 754 395 754Q412 754 421 766.50Q430 779 430 794L470 794Q470 734 451.50 714Q433 694 403 694Q386 694 373.50 700Q361 706 350.50 713.50Q340 721 330 727.50Q320 734 310 734Q293 734 284 721.50Q275 709 275 694L235 694Z"  horiz-adv-x="692" vert-adv-y="1000"  />

      
      <glyph glyph-name="unid2" unicode="&#xd2;" d="M558 330Q558 476 508 555.50Q458 635 367 635Q276 635 226.50 555.50Q177 476 177 330Q177 184 226.50 104.50Q276 25 367 25Q458 25 508 104.50Q558 184 558 330M37 330Q37 404 60.50 468Q84 532 127.50 579Q171 626 231.50 653Q292 680 367 680Q442 680 502.50 653Q563 626 606 579Q649 532 672.50 468Q696 404 696 330Q696 256 672.50 192Q649 128 606 81Q563 34 502.50 7Q442-20 367-20Q292-20 231.50 7Q171 34 127.50 81Q84 128 60.50 192Q37 256 37 330M238 863L357 863L399 723L344 723L238 863Z"  horiz-adv-x="733" vert-adv-y="1000"  />

      
      <glyph glyph-name="unid3" unicode="&#xd3;" d="M558 330Q558 476 508 555.50Q458 635 367 635Q276 635 226.50 555.50Q177 476 177 330Q177 184 226.50 104.50Q276 25 367 25Q458 25 508 104.50Q558 184 558 330M37 330Q37 404 60.50 468Q84 532 127.50 579Q171 626 231.50 653Q292 680 367 680Q442 680 502.50 653Q563 626 606 579Q649 532 672.50 468Q696 404 696 330Q696 256 672.50 192Q649 128 606 81Q563 34 502.50 7Q442-20 367-20Q292-20 231.50 7Q171 34 127.50 81Q84 128 60.50 192Q37 256 37 330M393 724L338 724L380 864L499 864L393 724Z"  horiz-adv-x="733" vert-adv-y="1000"  />

      
      <glyph glyph-name="unid4" unicode="&#xd4;" d="M558 330Q558 476 508 555.50Q458 635 367 635Q276 635 226.50 555.50Q177 476 177 330Q177 184 226.50 104.50Q276 25 367 25Q458 25 508 104.50Q558 184 558 330M37 330Q37 404 60.50 468Q84 532 127.50 579Q171 626 231.50 653Q292 680 367 680Q442 680 502.50 653Q563 626 606 579Q649 532 672.50 468Q696 404 696 330Q696 256 672.50 192Q649 128 606 81Q563 34 502.50 7Q442-20 367-20Q292-20 231.50 7Q171 34 127.50 81Q84 128 60.50 192Q37 256 37 330M363 811L278 731L218 731L298 856L428 856L508 731L448 731L363 811Z"  horiz-adv-x="733" vert-adv-y="1000"  />

      
      <glyph glyph-name="unid5" unicode="&#xd5;" d="M558 330Q558 476 508 555.50Q458 635 367 635Q276 635 226.50 555.50Q177 476 177 330Q177 184 226.50 104.50Q276 25 367 25Q458 25 508 104.50Q558 184 558 330M37 330Q37 404 60.50 468Q84 532 127.50 579Q171 626 231.50 653Q292 680 367 680Q442 680 502.50 653Q563 626 606 579Q649 532 672.50 468Q696 404 696 330Q696 256 672.50 192Q649 128 606 81Q563 34 502.50 7Q442-20 367-20Q292-20 231.50 7Q171 34 127.50 81Q84 128 60.50 192Q37 256 37 330M249 738Q249 798 268 818Q287 838 317 838Q334 838 346.50 831.50Q359 825 369.50 817.50Q380 810 389.50 804Q399 798 409 798Q426 798 435 810.50Q444 823 444 838L484 838Q484 778 465.50 758Q447 738 417 738Q400 738 387.50 744Q375 750 364.50 757.50Q354 765 344 771.50Q334 778 324 778Q307 778 298 765.50Q289 753 289 738L249 738Z"  horiz-adv-x="733" vert-adv-y="1000"  />

      
      <glyph glyph-name="unid6" unicode="&#xd6;" d="M558 330Q558 476 508 555.50Q458 635 367 635Q276 635 226.50 555.50Q177 476 177 330Q177 184 226.50 104.50Q276 25 367 25Q458 25 508 104.50Q558 184 558 330M37 330Q37 404 60.50 468Q84 532 127.50 579Q171 626 231.50 653Q292 680 367 680Q442 680 502.50 653Q563 626 606 579Q649 532 672.50 468Q696 404 696 330Q696 256 672.50 192Q649 128 606 81Q563 34 502.50 7Q442-20 367-20Q292-20 231.50 7Q171 34 127.50 81Q84 128 60.50 192Q37 256 37 330M333 791Q333 768 318 751.50Q303 735 277 735Q251 735 236 751.50Q221 768 221 791Q221 814 236 830.50Q251 847 277 847Q303 847 318 830.50Q333 814 333 791M513 791Q513 768 498 751.50Q483 735 457 735Q431 735 416 751.50Q401 768 401 791Q401 814 416 830.50Q431 847 457 847Q483 847 498 830.50Q513 814 513 791Z"  horiz-adv-x="733" vert-adv-y="1000"  />

      
      <glyph glyph-name="unid7" unicode="&#xd7;" d="M245 271L105 132L42 195L181 334L43 472L107 536L245 398L384 537L448 474L308 334L446 196L382 133L245 271Z"  horiz-adv-x="489" vert-adv-y="1000"  />

      
      <glyph glyph-name="unid8" unicode="&#xd8;" d="M107-20L152 56Q97 104 67 174.50Q37 245 37 330Q37 404 60.50 468Q84 532 127.50 579Q171 626 231.50 653Q292 680 367 680Q445 680 510 649L528 680L620 680L576 607Q633 559 664.50 488Q696 417 696 330Q696 256 672.50 192Q649 128 606 81Q563 34 502.50 7Q442-20 367-20Q325-20 288-11.50Q251-3 219 13L199-20L107-20M558 330Q558 389 549.50 436.50Q541 484 525 522L253 70Q298 25 367 25Q458 25 508 104.50Q558 184 558 330M177 330Q177 220 206 145L476 593Q429 635 367 635Q276 635 226.50 555.50Q177 476 177 330Z"  horiz-adv-x="733" vert-adv-y="1000"  />

      
      <glyph glyph-name="unid9" unicode="&#xd9;" d="M223 258Q224 154 263.50 94.50Q303 35 382 35Q484 35 530.50 96Q577 157 577 288L577 660L627 660L627 288Q627 217 613 162Q599 107 567.50 68.50Q536 30 485.50 10Q435-10 362-10Q92-10 92 288L92 530Q92 575 79.50 602.50Q67 630 22 630L22 660L132 660Q158 660 175.50 653.50Q193 647 203.50 632Q214 617 218 592Q222 567 222 530L223 258M263 820L382 820L424 680L369 680L263 820Z"  horiz-adv-x="695" vert-adv-y="1000"  />

      
      <glyph glyph-name="unida" unicode="&#xda;" d="M223 258Q224 154 263.50 94.50Q303 35 382 35Q484 35 530.50 96Q577 157 577 288L577 660L627 660L627 288Q627 217 613 162Q599 107 567.50 68.50Q536 30 485.50 10Q435-10 362-10Q92-10 92 288L92 530Q92 575 79.50 602.50Q67 630 22 630L22 660L132 660Q158 660 175.50 653.50Q193 647 203.50 632Q214 617 218 592Q222 567 222 530L223 258M392 681L337 681L379 821L498 821L392 681Z"  horiz-adv-x="695" vert-adv-y="1000"  />

      
      <glyph glyph-name="unidb" unicode="&#xdb;" d="M223 258Q224 154 263.50 94.50Q303 35 382 35Q484 35 530.50 96Q577 157 577 288L577 660L627 660L627 288Q627 217 613 162Q599 107 567.50 68.50Q536 30 485.50 10Q435-10 362-10Q92-10 92 288L92 530Q92 575 79.50 602.50Q67 630 22 630L22 660L132 660Q158 660 175.50 653.50Q193 647 203.50 632Q214 617 218 592Q222 567 222 530L223 258M388 761L303 681L243 681L323 806L453 806L533 681L473 681L388 761Z"  horiz-adv-x="695" vert-adv-y="1000"  />

      
      <glyph glyph-name="unidc" unicode="&#xdc;" d="M223 258Q224 154 263.50 94.50Q303 35 382 35Q484 35 530.50 96Q577 157 577 288L577 660L627 660L627 288Q627 217 613 162Q599 107 567.50 68.50Q536 30 485.50 10Q435-10 362-10Q92-10 92 288L92 530Q92 575 79.50 602.50Q67 630 22 630L22 660L132 660Q158 660 175.50 653.50Q193 647 203.50 632Q214 617 218 592Q222 567 222 530L223 258M349 737Q349 714 334 697.50Q319 681 293 681Q267 681 252 697.50Q237 714 237 737Q237 760 252 776.50Q267 793 293 793Q319 793 334 776.50Q349 760 349 737M529 737Q529 714 514 697.50Q499 681 473 681Q447 681 432 697.50Q417 714 417 737Q417 760 432 776.50Q447 793 473 793Q499 793 514 776.50Q529 760 529 737Z"  horiz-adv-x="695" vert-adv-y="1000"  />

      
      <glyph glyph-name="unidd" unicode="&#xdd;" d="M377 345L571 660L636 660L409 291L409 0L279 0L279 264L102 530Q89 549 73 568Q57 587 39.50 602.50Q22 618 4 628Q-14 638-31 640L-31 660L78 660Q106 660 130.50 650Q155 640 175.50 624Q196 608 212.50 588.50Q229 569 241 550L377 345M373 670L318 670L360 810L479 810L373 670Z"  horiz-adv-x="638" vert-adv-y="1000"  />

      
      <glyph glyph-name="unide" unicode="&#xde;" d="M227 550Q537 542 537 315Q537 86 227 80L227-30L97-30L97 560Q97 605 84.50 632.50Q72 660 27 660L17 660L17 690L137 690Q163 690 180.50 683.50Q198 677 208.50 662Q219 647 223 622Q227 597 227 560L227 550M397 315Q397 397 355.50 448Q314 499 227 504L227 125Q315 131 356 182Q397 233 397 315Z"  horiz-adv-x="555" vert-adv-y="1000"  />

      
      <glyph glyph-name="unidf" unicode="&#xdf;" d="M340 550Q340 588 320 606.50Q300 625 270 625Q236 625 213 598Q190 571 190 500L190 0L60 0L60 500Q60 552 76 585.50Q92 619 120.50 637.50Q149 656 188.50 663Q228 670 275 670Q373 670 419 642.50Q465 615 465 570Q465 529 445.50 502.50Q426 476 402.50 455Q379 434 359.50 415Q340 396 340 370Q340 343 356 323Q372 303 396 286.50Q420 270 447.50 254.50Q475 239 499 220.50Q523 202 539 178Q555 154 555 120Q555 86 539.50 61.50Q524 37 499.50 21Q475 5 443.50-2.50Q412-10 380-10Q342-10 308 0.50Q274 11 255 30Q236 49 233 75Q230 101 230 120L260 120Q262 105 269.50 90Q277 75 289.50 62.50Q302 50 319.50 42.50Q337 35 360 35Q394 35 412 54.50Q430 74 430 100Q430 127 415.50 147Q401 167 379.50 183.50Q358 200 332.50 215.50Q307 231 285.50 249.50Q264 268 249.50 292Q235 316 235 350Q235 391 251.50 415Q268 439 287.50 457.50Q307 476 323.50 496Q340 516 340 550Z"  horiz-adv-x="573" vert-adv-y="1000"  />

      
      <glyph glyph-name="unie0" unicode="&#xe0;" d="M314 230L299 230Q227 230 195.50 204Q164 178 164 125Q164 83 181.50 61.50Q199 40 229 40Q252 40 267.50 50Q283 60 294 72Q306 86 314 105L314 230M239 480Q337 480 390.50 428Q444 376 444 270L444 0L359 0L324 45L319 45Q308 29 291 17Q277 6 254-2Q231-10 199-10Q116-10 72.50 27.50Q29 65 29 125Q29 161 41 188.50Q53 216 83.50 235.50Q114 255 166 265Q218 275 299 275L314 275Q314 365 289 400Q264 435 219 435Q202 435 186.50 431.50Q171 428 158 418Q145 408 135 390.50Q125 373 119 345L64 345Q64 371 67.50 398Q71 425 89 445Q107 465 148.50 472.50Q190 480 239 480M115 665L234 665L276 525L221 525L115 665Z"  horiz-adv-x="496" vert-adv-y="1000"  />

      
      <glyph glyph-name="unie1" unicode="&#xe1;" d="M314 230L299 230Q227 230 195.50 204Q164 178 164 125Q164 83 181.50 61.50Q199 40 229 40Q252 40 267.50 50Q283 60 294 72Q306 86 314 105L314 230M239 480Q337 480 390.50 428Q444 376 444 270L444 0L359 0L324 45L319 45Q308 29 291 17Q277 6 254-2Q231-10 199-10Q116-10 72.50 27.50Q29 65 29 125Q29 161 41 188.50Q53 216 83.50 235.50Q114 255 166 265Q218 275 299 275L314 275Q314 365 289 400Q264 435 219 435Q202 435 186.50 431.50Q171 428 158 418Q145 408 135 390.50Q125 373 119 345L64 345Q64 371 67.50 398Q71 425 89 445Q107 465 148.50 472.50Q190 480 239 480M256 526L201 526L243 666L362 666L256 526Z"  horiz-adv-x="496" vert-adv-y="1000"  />

      
      <glyph glyph-name="unie2" unicode="&#xe2;" d="M314 230L299 230Q227 230 195.50 204Q164 178 164 125Q164 83 181.50 61.50Q199 40 229 40Q252 40 267.50 50Q283 60 294 72Q306 86 314 105L314 230M239 480Q337 480 390.50 428Q444 376 444 270L444 0L359 0L324 45L319 45Q308 29 291 17Q277 6 254-2Q231-10 199-10Q116-10 72.50 27.50Q29 65 29 125Q29 161 41 188.50Q53 216 83.50 235.50Q114 255 166 265Q218 275 299 275L314 275Q314 365 289 400Q264 435 219 435Q202 435 186.50 431.50Q171 428 158 418Q145 408 135 390.50Q125 373 119 345L64 345Q64 371 67.50 398Q71 425 89 445Q107 465 148.50 472.50Q190 480 239 480M250 611L165 531L105 531L185 656L315 656L395 531L335 531L250 611Z"  horiz-adv-x="496" vert-adv-y="1000"  />

      
      <glyph glyph-name="unie3" unicode="&#xe3;" d="M314 230L299 230Q227 230 195.50 204Q164 178 164 125Q164 83 181.50 61.50Q199 40 229 40Q252 40 267.50 50Q283 60 294 72Q306 86 314 105L314 230M239 480Q337 480 390.50 428Q444 376 444 270L444 0L359 0L324 45L319 45Q308 29 291 17Q277 6 254-2Q231-10 199-10Q116-10 72.50 27.50Q29 65 29 125Q29 161 41 188.50Q53 216 83.50 235.50Q114 255 166 265Q218 275 299 275L314 275Q314 365 289 400Q264 435 219 435Q202 435 186.50 431.50Q171 428 158 418Q145 408 135 390.50Q125 373 119 345L64 345Q64 371 67.50 398Q71 425 89 445Q107 465 148.50 472.50Q190 480 239 480M128 536Q128 596 147 616Q166 636 196 636Q213 636 225.50 629.50Q238 623 248.50 615.50Q259 608 268.50 602Q278 596 288 596Q305 596 314 608.50Q323 621 323 636L363 636Q363 576 344.50 556Q326 536 296 536Q279 536 266.50 542Q254 548 243.50 555.50Q233 563 223 569.50Q213 576 203 576Q186 576 177 563.50Q168 551 168 536L128 536Z"  horiz-adv-x="496" vert-adv-y="1000"  />

      
      <glyph glyph-name="unie4" unicode="&#xe4;" d="M314 230L299 230Q227 230 195.50 204Q164 178 164 125Q164 83 181.50 61.50Q199 40 229 40Q252 40 267.50 50Q283 60 294 72Q306 86 314 105L314 230M239 480Q337 480 390.50 428Q444 376 444 270L444 0L359 0L324 45L319 45Q308 29 291 17Q277 6 254-2Q231-10 199-10Q116-10 72.50 27.50Q29 65 29 125Q29 161 41 188.50Q53 216 83.50 235.50Q114 255 166 265Q218 275 299 275L314 275Q314 365 289 400Q264 435 219 435Q202 435 186.50 431.50Q171 428 158 418Q145 408 135 390.50Q125 373 119 345L64 345Q64 371 67.50 398Q71 425 89 445Q107 465 148.50 472.50Q190 480 239 480M215 591Q215 568 200 551.50Q185 535 159 535Q133 535 118 551.50Q103 568 103 591Q103 614 118 630.50Q133 647 159 647Q185 647 200 630.50Q215 614 215 591M395 591Q395 568 380 551.50Q365 535 339 535Q313 535 298 551.50Q283 568 283 591Q283 614 298 630.50Q313 647 339 647Q365 647 380 630.50Q395 614 395 591Z"  horiz-adv-x="496" vert-adv-y="1000"  />

      
      <glyph glyph-name="unie5" unicode="&#xe5;" d="M314 230L299 230Q227 230 195.50 204Q164 178 164 125Q164 83 181.50 61.50Q199 40 229 40Q252 40 267.50 50Q283 60 294 72Q306 86 314 105L314 230M239 480Q337 480 390.50 428Q444 376 444 270L444 0L359 0L324 45L319 45Q308 29 291 17Q277 6 254-2Q231-10 199-10Q116-10 72.50 27.50Q29 65 29 125Q29 161 41 188.50Q53 216 83.50 235.50Q114 255 166 265Q218 275 299 275L314 275Q314 365 289 400Q264 435 219 435Q202 435 186.50 431.50Q171 428 158 418Q145 408 135 390.50Q125 373 119 345L64 345Q64 371 67.50 398Q71 425 89 445Q107 465 148.50 472.50Q190 480 239 480M148 615Q148 657 174.50 683.50Q201 710 243 710Q285 710 311.50 683.50Q338 657 338 615Q338 573 311.50 546.50Q285 520 243 520Q201 520 174.50 546.50Q148 573 148 615M288 615Q288 638 275 651.50Q262 665 243 665Q224 665 211 651.50Q198 638 198 615Q198 592 211 578.50Q224 565 243 565Q262 565 275 578.50Q288 592 288 615Z"  horiz-adv-x="496" vert-adv-y="1000"  />

      
      <glyph glyph-name="unie6" unicode="&#xe6;" d="M568 35Q620 35 652.50 59Q685 83 711 118L742 95Q731 78 715.50 59.50Q700 41 677.50 25.50Q655 10 624.50 0Q594-10 553-10Q443-10 383 80Q374 63 358.50 47Q343 31 321.50 18Q300 5 272-2.50Q244-10 208-10Q118-10 73 27Q28 64 28 120Q28 152 40.50 178Q53 204 84.50 223Q116 242 169 252Q222 262 303 262L318 262Q318 353 292.50 394Q267 435 218 435Q201 435 185.50 431.50Q170 428 157 418Q144 408 134 390.50Q124 373 118 345L63 345Q63 371 66.50 398Q70 425 88 445Q97 455 112 461.50Q127 468 145 472Q163 476 182 478Q201 480 218 480Q282 480 326 455.50Q370 431 393 389Q422 435 463.50 457.50Q505 480 553 480Q596 480 634.50 465.50Q673 451 701.50 425Q730 399 746.50 362Q763 325 763 280Q763 269 762.50 257.50Q762 246 761 237Q760 226 759 217L458 217L458 207Q459 114 489.50 74.50Q520 35 568 35M628 262Q628 354 604 394.50Q580 435 543 435Q509 435 483.50 394.50Q458 354 458 262L628 262M318 217L303 217Q260 217 232.50 210.50Q205 204 189.50 191Q174 178 168.50 160Q163 142 163 120Q163 86 180.50 63Q198 40 228 40Q252 40 269 50Q286 60 297 72Q309 86 318 105L318 217Z"  horiz-adv-x="795" vert-adv-y="1000"  />

      
      <glyph glyph-name="unie7" unicode="&#xe7;" d="M292 435Q239 435 205.50 386Q172 337 172 235Q172 35 297 35Q349 35 381.50 59Q414 83 440 118L471 95Q460 79 446 61.50Q432 44 411.50 29Q391 14 362.50 3.50Q334-7 296-9L296-32Q334-32 358-53Q382-74 382-110Q382-145 358-166.50Q334-188 296-188L236-188L236-142L276-142Q295-142 305.50-132.50Q316-123 316-110Q316-96 305.50-86.50Q295-77 276-77L237-77L237-7Q187-1 149.50 20.50Q112 42 87 74Q62 106 49.50 147.50Q37 189 37 235Q37 285 52 329.50Q67 374 97 407.50Q127 441 172 460.50Q217 480 277 480Q334 480 373.50 472Q413 464 432 445Q451 426 454 394Q457 362 457 305L427 305Q423 369 387.50 402Q352 435 292 435Z"  horiz-adv-x="498" vert-adv-y="1000"  />

      
      <glyph glyph-name="unie8" unicode="&#xe8;" d="M282 35Q334 35 366.50 59Q399 83 425 118L456 95Q445 78 429.50 59.50Q414 41 391.50 25.50Q369 10 338.50 0Q308-10 267-10Q214-10 171.50 8.50Q129 27 99 60Q69 93 53 137.50Q37 182 37 235Q37 295 54 341Q71 387 100.50 417.50Q130 448 170 464Q210 480 257 480Q304 480 344 465.50Q384 451 413.50 425Q443 399 460 362Q477 325 477 280Q477 269 476.50 257.50Q476 246 475 237Q474 226 473 217L172 217Q172 118 202.50 76.50Q233 35 282 35M342 262Q342 312 335.50 345Q329 378 318 398Q307 418 291.50 426.50Q276 435 257 435Q240 435 224.50 426.50Q209 418 197.50 398Q186 378 179 345Q172 312 172 262L342 262M129 665L248 665L290 525L235 525L129 665Z"  horiz-adv-x="509" vert-adv-y="1000"  />

      
      <glyph glyph-name="unie9" unicode="&#xe9;" d="M282 35Q334 35 366.50 59Q399 83 425 118L456 95Q445 78 429.50 59.50Q414 41 391.50 25.50Q369 10 338.50 0Q308-10 267-10Q214-10 171.50 8.50Q129 27 99 60Q69 93 53 137.50Q37 182 37 235Q37 295 54 341Q71 387 100.50 417.50Q130 448 170 464Q210 480 257 480Q304 480 344 465.50Q384 451 413.50 425Q443 399 460 362Q477 325 477 280Q477 269 476.50 257.50Q476 246 475 237Q474 226 473 217L172 217Q172 118 202.50 76.50Q233 35 282 35M342 262Q342 312 335.50 345Q329 378 318 398Q307 418 291.50 426.50Q276 435 257 435Q240 435 224.50 426.50Q209 418 197.50 398Q186 378 179 345Q172 312 172 262L342 262M274 525L219 525L261 665L380 665L274 525Z"  horiz-adv-x="509" vert-adv-y="1000"  />

      
      <glyph glyph-name="uniea" unicode="&#xea;" d="M282 35Q334 35 366.50 59Q399 83 425 118L456 95Q445 78 429.50 59.50Q414 41 391.50 25.50Q369 10 338.50 0Q308-10 267-10Q214-10 171.50 8.50Q129 27 99 60Q69 93 53 137.50Q37 182 37 235Q37 295 54 341Q71 387 100.50 417.50Q130 448 170 464Q210 480 257 480Q304 480 344 465.50Q384 451 413.50 425Q443 399 460 362Q477 325 477 280Q477 269 476.50 257.50Q476 246 475 237Q474 226 473 217L172 217Q172 118 202.50 76.50Q233 35 282 35M342 262Q342 312 335.50 345Q329 378 318 398Q307 418 291.50 426.50Q276 435 257 435Q240 435 224.50 426.50Q209 418 197.50 398Q186 378 179 345Q172 312 172 262L342 262M252 606L167 526L107 526L187 651L317 651L397 526L337 526L252 606Z"  horiz-adv-x="509" vert-adv-y="1000"  />

      
      <glyph glyph-name="unieb" unicode="&#xeb;" d="M282 35Q334 35 366.50 59Q399 83 425 118L456 95Q445 78 429.50 59.50Q414 41 391.50 25.50Q369 10 338.50 0Q308-10 267-10Q214-10 171.50 8.50Q129 27 99 60Q69 93 53 137.50Q37 182 37 235Q37 295 54 341Q71 387 100.50 417.50Q130 448 170 464Q210 480 257 480Q304 480 344 465.50Q384 451 413.50 425Q443 399 460 362Q477 325 477 280Q477 269 476.50 257.50Q476 246 475 237Q474 226 473 217L172 217Q172 118 202.50 76.50Q233 35 282 35M342 262Q342 312 335.50 345Q329 378 318 398Q307 418 291.50 426.50Q276 435 257 435Q240 435 224.50 426.50Q209 418 197.50 398Q186 378 179 345Q172 312 172 262L342 262M218 591Q218 568 203 551.50Q188 535 162 535Q136 535 121 551.50Q106 568 106 591Q106 614 121 630.50Q136 647 162 647Q188 647 203 630.50Q218 614 218 591M398 591Q398 568 383 551.50Q368 535 342 535Q316 535 301 551.50Q286 568 286 591Q286 614 301 630.50Q316 647 342 647Q368 647 383 630.50Q398 614 398 591Z"  horiz-adv-x="509" vert-adv-y="1000"  />

      
      <glyph glyph-name="uniec" unicode="&#xec;" d="M79 340Q79 385 66.50 412.50Q54 440 9 440L-1 440L-1 470L119 470Q145 470 162.50 463.50Q180 457 190.50 442Q201 427 205 402Q209 377 209 340L209 0L79 0L79 340M11 665L130 665L172 525L117 525L11 665Z"  horiz-adv-x="267" vert-adv-y="1000"  />

      
      <glyph glyph-name="unied" unicode="&#xed;" d="M79 340Q79 385 66.50 412.50Q54 440 9 440L-1 440L-1 470L119 470Q145 470 162.50 463.50Q180 457 190.50 442Q201 427 205 402Q209 377 209 340L209 0L79 0L79 340M150 525L95 525L137 665L256 665L150 525Z"  horiz-adv-x="267" vert-adv-y="1000"  />

      
      <glyph glyph-name="uniee" unicode="&#xee;" d="M79 340Q79 385 66.50 412.50Q54 440 9 440L-1 440L-1 470L119 470Q145 470 162.50 463.50Q180 457 190.50 442Q201 427 205 402Q209 377 209 340L209 0L79 0L79 340M135 612L50 532L-10 532L70 657L200 657L280 532L220 532L135 612Z"  horiz-adv-x="267" vert-adv-y="1000"  />

      
      <glyph glyph-name="unief" unicode="&#xef;" d="M109 590Q109 564 93 549Q77 534 54 534Q16 534-2.50 557Q-21 580-21 610Q-21 636-5 651Q11 666 34 666Q72 666 90.50 643Q109 620 109 590M79 340Q79 385 66.50 412.50Q54 440 9 440L-1 440L-1 470L119 470Q145 470 162.50 463.50Q180 457 190.50 442Q201 427 205 402Q209 377 209 340L209 0L79 0L79 340M294 590Q294 564 278 549Q262 534 239 534Q201 534 182.50 557Q164 580 164 610Q164 636 180 651Q196 666 219 666Q257 666 275.50 643Q294 620 294 590Z"  horiz-adv-x="267" vert-adv-y="1000"  />

      
      <glyph glyph-name="unif0" unicode="&#xf0;" d="M406 400Q395 451 379.50 488.50Q364 526 340 555L293 508L253 548L300 595Q279 615 251.50 620Q224 625 196 625Q185 625 175 623.50Q165 622 158 620Q149 618 143 616L129 648Q147 659 172 664.50Q197 670 216 670Q259 670 289 660.50Q319 651 344 634L387 680L427 642L385 600Q441 550 478.50 465.50Q516 381 516 270Q516 206 501 154.50Q486 103 456 66.50Q426 30 381 10Q336-10 276-10Q216-10 171 9.50Q126 29 96 62Q66 95 51 139.50Q36 184 36 235Q36 286 51 330.50Q66 375 95 408Q124 441 167 460.50Q210 480 266 480Q315 480 351 459Q387 438 406 400M381 235Q381 271 375 306.50Q369 342 356.50 370.50Q344 399 324 417Q304 435 276 435Q248 435 228 417Q208 399 195.50 370.50Q183 342 177 306.50Q171 271 171 235Q171 184 179.50 146.50Q188 109 202.50 84.50Q217 60 236 47.50Q255 35 276 35Q297 35 316 47.50Q335 60 349.50 84.50Q364 109 372.50 146.50Q381 184 381 235Z"  horiz-adv-x="557" vert-adv-y="1000"  />

      
      <glyph glyph-name="unif1" unicode="&#xf1;" d="M295 430Q263 430 239.50 421Q216 412 203 399Q204 393 206 385Q208 378 209 368Q210 358 210 346L210 0L80 0L80 340Q80 362 77.50 380.50Q75 399 68 412.50Q61 426 47 433Q33 440 11 440L1 440L1 470L100 470Q134 470 153.50 461.50Q173 453 184 433Q193 441 205.50 449.50Q218 458 235.50 464.50Q253 471 276 475.50Q299 480 330 480Q424 480 472 436.50Q520 393 520 296L520 0L390 0L390 297Q390 370 363 400Q336 430 295 430M177 545Q177 605 196 625Q215 645 245 645Q262 645 274.50 638.50Q287 632 297.50 624.50Q308 617 317.50 611Q327 605 337 605Q354 605 363 617.50Q372 630 372 645L412 645Q412 585 393.50 565Q375 545 345 545Q328 545 315.50 551Q303 557 292.50 564.50Q282 572 272 578.50Q262 585 252 585Q235 585 226 572.50Q217 560 217 545L177 545Z"  horiz-adv-x="575" vert-adv-y="1000"  />

      
      <glyph glyph-name="unif2" unicode="&#xf2;" d="M381 235Q381 278 374.50 314.50Q368 351 355 378Q342 405 322 420Q302 435 276 435Q250 435 230 420Q210 405 197 378Q184 351 177.50 314.50Q171 278 171 235Q171 192 177.50 155.50Q184 119 197 92Q210 65 230 50Q250 35 276 35Q302 35 322 50Q342 65 355 92Q368 119 374.50 155.50Q381 192 381 235M36 235Q36 286 52.50 331Q69 376 100 409Q131 442 175.50 461Q220 480 276 480Q332 480 376.50 461Q421 442 452 409Q483 376 499.50 331Q516 286 516 235Q516 184 499.50 139Q483 94 452 61Q421 28 376.50 9Q332-10 276-10Q220-10 175.50 9Q131 28 100 61Q69 94 52.50 139Q36 184 36 235M153 665L272 665L314 525L259 525L153 665Z"  horiz-adv-x="552" vert-adv-y="1000"  />

      
      <glyph glyph-name="unif3" unicode="&#xf3;" d="M381 235Q381 278 374.50 314.50Q368 351 355 378Q342 405 322 420Q302 435 276 435Q250 435 230 420Q210 405 197 378Q184 351 177.50 314.50Q171 278 171 235Q171 192 177.50 155.50Q184 119 197 92Q210 65 230 50Q250 35 276 35Q302 35 322 50Q342 65 355 92Q368 119 374.50 155.50Q381 192 381 235M36 235Q36 286 52.50 331Q69 376 100 409Q131 442 175.50 461Q220 480 276 480Q332 480 376.50 461Q421 442 452 409Q483 376 499.50 331Q516 286 516 235Q516 184 499.50 139Q483 94 452 61Q421 28 376.50 9Q332-10 276-10Q220-10 175.50 9Q131 28 100 61Q69 94 52.50 139Q36 184 36 235M288 525L233 525L275 665L394 665L288 525Z"  horiz-adv-x="552" vert-adv-y="1000"  />

      
      <glyph glyph-name="unif4" unicode="&#xf4;" d="M381 235Q381 278 374.50 314.50Q368 351 355 378Q342 405 322 420Q302 435 276 435Q250 435 230 420Q210 405 197 378Q184 351 177.50 314.50Q171 278 171 235Q171 192 177.50 155.50Q184 119 197 92Q210 65 230 50Q250 35 276 35Q302 35 322 50Q342 65 355 92Q368 119 374.50 155.50Q381 192 381 235M36 235Q36 286 52.50 331Q69 376 100 409Q131 442 175.50 461Q220 480 276 480Q332 480 376.50 461Q421 442 452 409Q483 376 499.50 331Q516 286 516 235Q516 184 499.50 139Q483 94 452 61Q421 28 376.50 9Q332-10 276-10Q220-10 175.50 9Q131 28 100 61Q69 94 52.50 139Q36 184 36 235M276 605L191 525L131 525L211 650L341 650L421 525L361 525L276 605Z"  horiz-adv-x="552" vert-adv-y="1000"  />

      
      <glyph glyph-name="unif5" unicode="&#xf5;" d="M381 235Q381 278 374.50 314.50Q368 351 355 378Q342 405 322 420Q302 435 276 435Q250 435 230 420Q210 405 197 378Q184 351 177.50 314.50Q171 278 171 235Q171 192 177.50 155.50Q184 119 197 92Q210 65 230 50Q250 35 276 35Q302 35 322 50Q342 65 355 92Q368 119 374.50 155.50Q381 192 381 235M36 235Q36 286 52.50 331Q69 376 100 409Q131 442 175.50 461Q220 480 276 480Q332 480 376.50 461Q421 442 452 409Q483 376 499.50 331Q516 286 516 235Q516 184 499.50 139Q483 94 452 61Q421 28 376.50 9Q332-10 276-10Q220-10 175.50 9Q131 28 100 61Q69 94 52.50 139Q36 184 36 235M158 536Q158 596 177 616Q196 636 226 636Q243 636 255.50 629.50Q268 623 278.50 615.50Q289 608 298.50 602Q308 596 318 596Q335 596 344 608.50Q353 621 353 636L393 636Q393 576 374.50 556Q356 536 326 536Q309 536 296.50 542Q284 548 273.50 555.50Q263 563 253 569.50Q243 576 233 576Q216 576 207 563.50Q198 551 198 536L158 536Z"  horiz-adv-x="552" vert-adv-y="1000"  />

      
      <glyph glyph-name="unif6" unicode="&#xf6;" d="M381 235Q381 278 374.50 314.50Q368 351 355 378Q342 405 322 420Q302 435 276 435Q250 435 230 420Q210 405 197 378Q184 351 177.50 314.50Q171 278 171 235Q171 192 177.50 155.50Q184 119 197 92Q210 65 230 50Q250 35 276 35Q302 35 322 50Q342 65 355 92Q368 119 374.50 155.50Q381 192 381 235M36 235Q36 286 52.50 331Q69 376 100 409Q131 442 175.50 461Q220 480 276 480Q332 480 376.50 461Q421 442 452 409Q483 376 499.50 331Q516 286 516 235Q516 184 499.50 139Q483 94 452 61Q421 28 376.50 9Q332-10 276-10Q220-10 175.50 9Q131 28 100 61Q69 94 52.50 139Q36 184 36 235M242 591Q242 568 227 551.50Q212 535 186 535Q160 535 145 551.50Q130 568 130 591Q130 614 145 630.50Q160 647 186 647Q212 647 227 630.50Q242 614 242 591M422 591Q422 568 407 551.50Q392 535 366 535Q340 535 325 551.50Q310 568 310 591Q310 614 325 630.50Q340 647 366 647Q392 647 407 630.50Q422 614 422 591Z"  horiz-adv-x="552" vert-adv-y="1000"  />

      
      <glyph glyph-name="unif7" unicode="&#xf7;" d="M504 297L44 297L44 362L504 362L504 297M330 481Q330 458 315 441.50Q300 425 274 425Q248 425 233 441.50Q218 458 218 481Q218 504 233 520.50Q248 537 274 537Q300 537 315 520.50Q330 504 330 481M330 179Q330 156 315 139.50Q300 123 274 123Q248 123 233 139.50Q218 156 218 179Q218 202 233 218.50Q248 235 274 235Q300 235 315 218.50Q330 202 330 179Z"  horiz-adv-x="548" vert-adv-y="1000"  />

      
      <glyph glyph-name="unif8" unicode="&#xf8;" d="M36 235Q36 286 52.50 331Q69 376 100 409Q131 442 175.50 461Q220 480 276 480Q309 480 338 473Q367 466 392 454L404 470L496 470L451 410Q483 377 499.50 332Q516 287 516 235Q516 184 499.50 139Q483 94 452 61Q421 28 376.50 9Q332-10 276-10Q243-10 214-3Q185 4 160 16L148 0L56 0L100 60Q69 93 52.50 138Q36 183 36 235M381 235Q381 274 375 307L205 77Q218 57 235.50 46Q253 35 276 35Q302 35 322 50Q342 65 355 92Q368 119 374.50 155.50Q381 192 381 235M171 235Q171 215 172 197Q173 179 176 162L346 392Q333 412 316 423.50Q299 435 276 435Q250 435 230 420Q210 405 197 378Q184 351 177.50 314.50Q171 278 171 235Z"  horiz-adv-x="552" vert-adv-y="1000"  />

      
      <glyph glyph-name="unif9" unicode="&#xf9;" d="M70 340Q70 385 57.50 412.50Q45 440 0 440L-10 440L-10 470L110 470Q136 470 153.50 463.50Q171 457 181.50 442Q192 427 196 402Q200 377 200 340L200 173Q200 96 222 65.50Q244 35 285 35Q308 35 324.50 45Q341 55 352 67Q365 81 375 100L375 470L505 470L505 0L420 0L385 45L380 45Q365 29 347 17Q331 6 308-2Q285-10 255-10Q161-10 115.50 33.50Q70 77 70 174L70 340M155 640L274 640L316 500L261 500L155 640Z"  horiz-adv-x="565" vert-adv-y="1000"  />

      
      <glyph glyph-name="unifa" unicode="&#xfa;" d="M70 340Q70 385 57.50 412.50Q45 440 0 440L-10 440L-10 470L110 470Q136 470 153.50 463.50Q171 457 181.50 442Q192 427 196 402Q200 377 200 340L200 173Q200 96 222 65.50Q244 35 285 35Q308 35 324.50 45Q341 55 352 67Q365 81 375 100L375 470L505 470L505 0L420 0L385 45L380 45Q365 29 347 17Q331 6 308-2Q285-10 255-10Q161-10 115.50 33.50Q70 77 70 174L70 340M300 500L245 500L287 640L406 640L300 500Z"  horiz-adv-x="565" vert-adv-y="1000"  />

      
      <glyph glyph-name="unifb" unicode="&#xfb;" d="M70 340Q70 385 57.50 412.50Q45 440 0 440L-10 440L-10 470L110 470Q136 470 153.50 463.50Q171 457 181.50 442Q192 427 196 402Q200 377 200 340L200 173Q200 96 222 65.50Q244 35 285 35Q308 35 324.50 45Q341 55 352 67Q365 81 375 100L375 470L505 470L505 0L420 0L385 45L380 45Q365 29 347 17Q331 6 308-2Q285-10 255-10Q161-10 115.50 33.50Q70 77 70 174L70 340M276 606L191 526L131 526L211 651L341 651L421 526L361 526L276 606Z"  horiz-adv-x="565" vert-adv-y="1000"  />

      
      <glyph glyph-name="unifc" unicode="&#xfc;" d="M70 340Q70 385 57.50 412.50Q45 440 0 440L-10 440L-10 470L110 470Q136 470 153.50 463.50Q171 457 181.50 442Q192 427 196 402Q200 377 200 340L200 173Q200 96 222 65.50Q244 35 285 35Q308 35 324.50 45Q341 55 352 67Q365 81 375 100L375 470L505 470L505 0L420 0L385 45L380 45Q365 29 347 17Q331 6 308-2Q285-10 255-10Q161-10 115.50 33.50Q70 77 70 174L70 340M242 571Q242 548 227 531.50Q212 515 186 515Q160 515 145 531.50Q130 548 130 571Q130 594 145 610.50Q160 627 186 627Q212 627 227 610.50Q242 594 242 571M422 571Q422 548 407 531.50Q392 515 366 515Q340 515 325 531.50Q310 548 310 571Q310 594 325 610.50Q340 627 366 627Q392 627 407 610.50Q422 594 422 571Z"  horiz-adv-x="565" vert-adv-y="1000"  />

      
      <glyph glyph-name="unifd" unicode="&#xfd;" d="M290-65Q275-106 258-132Q241-158 222-173Q203-188 180.50-194Q158-200 132-200L92-200L92-165Q118-165 139.50-160.50Q161-156 179-145Q197-134 211-115.50Q225-97 236-68L257-14L77 380Q44 453-16 460L-16 480L72 480Q117 480 151 458.50Q185 437 202 400L317 148L439 470L492 470L290-65M307 500L252 500L294 640L413 640L307 500Z"  horiz-adv-x="508" vert-adv-y="1000"  />

      
      <glyph glyph-name="unife" unicode="&#xfe;" d="M60 530Q60 575 47.50 602.50Q35 630-10 630L-20 630L-20 660L100 660Q126 660 143.50 653.50Q161 647 171.50 632Q182 617 186 592Q190 567 190 530L190 445Q207 459 234.50 469.50Q262 480 304 480Q355 480 392.50 462Q430 444 454.50 412Q479 380 491.50 334.50Q504 289 504 235Q504 181 491.50 135.50Q479 90 453.50 58Q428 26 388 8Q348-10 294-10Q262-10 236-4Q210 2 190 10L190-190L60-190L60 530M269 435Q243 435 223.50 426.50Q204 418 190 405L190 50Q208 43 226 39Q244 35 259 35Q312 35 340.50 88Q369 141 369 235Q369 329 341.50 382Q314 435 269 435Z"  horiz-adv-x="542" vert-adv-y="1000"  />

      
      <glyph glyph-name="uniff" unicode="&#xff;" d="M290-65Q275-106 258-132Q241-158 222-173Q203-188 180.50-194Q158-200 132-200L92-200L92-165Q118-165 139.50-160.50Q161-156 179-145Q197-134 211-115.50Q225-97 236-68L257-14L77 380Q44 453-16 460L-16 480L72 480Q117 480 151 458.50Q185 437 202 400L317 148L439 470L492 470L290-65M251 576Q251 553 236 536.50Q221 520 195 520Q169 520 154 536.50Q139 553 139 576Q139 599 154 615.50Q169 632 195 632Q221 632 236 615.50Q251 599 251 576M431 576Q431 553 416 536.50Q401 520 375 520Q349 520 334 536.50Q319 553 319 576Q319 599 334 615.50Q349 632 375 632Q401 632 416 615.50Q431 599 431 576Z"  horiz-adv-x="508" vert-adv-y="1000"  />

      
      <glyph glyph-name="uni011E" unicode="&#x011E;" d="M660 47Q602 12 537-4Q472-20 395-20Q317-20 251 8Q185 36 137 84.50Q89 133 62 198.50Q35 264 35 340Q35 412 58.50 474Q82 536 125.50 582Q169 628 229.50 654Q290 680 365 680Q459 680 519 655.50Q579 631 607 599Q617 586 622 569Q627 552 629.50 533.50Q632 515 632.50 496Q633 477 633 460L603 460Q584 552 533 593.50Q482 635 395 635Q335 635 293.50 610.50Q252 586 225.50 545Q199 504 187 450.50Q175 397 175 340Q175 249 192 187.50Q209 126 239 89Q269 52 309 36Q349 20 395 20Q440 20 472 27Q504 34 530 46L530 224Q530 245 536.50 266.50Q543 288 563.50 305.50Q584 323 622 334.50Q660 346 724 346L724 321Q690 321 675 296Q660 271 660 226L660 47M377 795Q419 795 447 810.50Q475 826 490 845L518 824Q499 782 462.50 756Q426 730 377 730Q328 730 291.50 756Q255 782 236 824L264 845Q279 826 307 810.50Q335 795 377 795Z"  horiz-adv-x="734" vert-adv-y="1000"  />

      
      <glyph glyph-name="uni011F" unicode="&#x011F;" d="M44 324Q44 367 60.50 397Q77 427 106.50 445.50Q136 464 175 472Q214 480 259 480L469 480L469 453L379 441Q421 425 447.50 392Q474 359 474 324Q474 281 458.50 251.50Q443 222 415 204Q387 186 347.50 178Q308 170 259 170Q214 170 186.50 165Q159 160 159 140Q159 123 186.50 118.50Q214 114 259 113Q310 112 354.50 102Q399 92 432 72.50Q465 53 484.50 23.50Q504-6 504-45Q504-89 485.50-118.50Q467-148 434-166Q401-184 356-192Q311-200 259-200Q206-200 161.50-192Q117-184 84-166Q51-148 32.50-118.50Q14-89 14-45Q14-18 26 3.50Q38 25 57.50 41Q77 57 101 68Q125 79 149 85Q130 91 117 104Q104 117 104 140Q104 174 144 190Q102 205 73 241.50Q44 278 44 324M220 72Q187 58 168 30.50Q149 3 149-45Q149-102 179-128.50Q209-155 259-155Q309-155 339-128.50Q369-102 369-45Q369 0 341 29Q313 58 267 67L220 72M339 324Q339 381 316.50 410.50Q294 440 259 440Q224 440 201.50 412.50Q179 385 179 324Q179 262 201.50 236Q224 210 259 210Q294 210 316.50 236Q339 262 339 324M260 595Q302 595 330 610.50Q358 626 373 645L401 624Q382 582 345.50 556Q309 530 260 530Q211 530 174.50 556Q138 582 119 624L147 645Q162 626 190 610.50Q218 595 260 595Z"  horiz-adv-x="520" vert-adv-y="1000"  />

      
      <glyph glyph-name="uni0130" unicode="&#x0130;" d="M79 660L209 660L209 130Q209 85 221.50 57.50Q234 30 279 30L289 30L289 0L169 0Q143 0 125.50 6Q108 12 97.50 27Q87 42 83 67Q79 92 79 130L79 660M204 770Q204 744 188 729Q172 714 149 714Q111 714 92.50 737Q74 760 74 790Q74 816 90 831Q106 846 129 846Q167 846 185.50 823Q204 800 204 770Z"  horiz-adv-x="304" vert-adv-y="1000"  />

      
      </font>
</defs>
</svg>
