<svg width="41" height="40" viewBox="0 0 41 40" fill="none" xmlns="http://www.w3.org/2000/svg">
<path fill-rule="evenodd" clip-rule="evenodd" d="M20.9614 0C9.91573 0 0.961426 8.9543 0.961426 20C0.961426 31.0457 9.91573 40 20.9614 40C32.0071 40 40.9614 31.0457 40.9614 20C40.9614 8.9543 32.0071 0 20.9614 0ZM14.9512 10C15.0104 10.0469 15.0573 10.0469 15.1043 10.0408C15.3471 10.0204 15.5553 10.0796 15.69 10.302C15.7138 10.3406 15.7375 10.3791 15.7613 10.4176C16.0398 10.869 16.3188 11.3211 16.5839 11.7837C16.7758 12.1181 16.9589 12.4579 17.1422 12.7981C17.2766 13.0475 17.4111 13.2972 17.5492 13.545C17.6027 13.6454 17.6695 13.74 17.7364 13.8346C17.7741 13.8881 17.8118 13.9415 17.8472 13.996C17.9324 14.1315 18.0139 14.2707 18.0934 14.4066L18.1064 14.4286C18.2778 14.7531 18.2696 15.0797 18.0145 15.3389C17.746 15.6134 17.4574 15.8735 17.1693 16.1331C17.0677 16.2247 16.9661 16.3162 16.8655 16.4083C16.7405 16.523 16.6136 16.636 16.4868 16.7488C16.2865 16.927 16.0865 17.105 15.8941 17.2899C15.6492 17.5267 15.5859 17.8226 15.7512 18.1348C15.7665 18.1635 15.7818 18.1921 15.7971 18.2207C16.0368 18.6696 16.2762 19.118 16.539 19.5573C17.5758 21.2859 18.9003 22.7553 20.5738 23.888C21.2187 24.3268 21.8901 24.7288 22.5677 25.1125C23.2065 25.4737 23.4554 25.4125 23.9514 24.8594C24.2133 24.5685 24.47 24.275 24.7269 23.9811C24.9225 23.7574 25.1183 23.5336 25.3167 23.3104C25.4269 23.1859 25.5596 23.0757 25.6881 22.9696C25.9494 22.7492 26.2351 22.7247 26.5351 22.8757C26.5539 22.8849 26.573 22.8939 26.5922 22.9029C26.6583 22.9339 26.7251 22.9652 26.782 23.0063C27.3142 23.3871 27.8884 23.693 28.4618 23.9985C28.746 24.1499 29.03 24.3012 29.3086 24.4615C29.5958 24.6265 29.8781 24.799 30.1596 24.9711C30.3202 25.0692 30.4805 25.1672 30.6413 25.2635C30.8801 25.4043 30.976 25.6105 30.9597 25.8941C30.9148 26.6921 30.7821 27.4758 30.3188 28.1493C30.1249 28.4289 29.8494 28.6738 29.5719 28.8717C28.8025 29.4105 27.9433 29.7432 27.029 29.9473C26.1984 30.133 25.3698 30.0656 24.5738 29.8167C23.0371 29.3432 21.5228 28.8003 20.1289 27.9779C18.8635 27.2289 17.7125 26.3248 16.6472 25.3145C15.2982 24.0308 14.0941 22.6308 13.1206 21.0369C12.4859 20.0022 12.0328 18.8879 11.6226 17.7512C11.3736 17.0654 11.1287 16.3858 11.0185 15.6593C10.892 14.8368 10.9797 14.045 11.243 13.2654C11.4797 12.5613 11.7757 11.8878 12.2226 11.2857C12.5736 10.8184 13.0124 10.4755 13.5798 10.3225C13.9003 10.2376 14.2229 10.165 14.5454 10.0923C14.6808 10.0619 14.8161 10.0314 14.9512 10Z" fill="white"/>
</svg>
