<svg width="41" height="40" viewBox="0 0 41 40" fill="none" xmlns="http://www.w3.org/2000/svg">
<path fill-rule="evenodd" clip-rule="evenodd" d="M0.898438 20C0.898438 31.0457 9.85274 40 20.8984 40C31.9441 40 40.8984 31.0457 40.8984 20C40.8984 8.9543 31.9441 0 20.8984 0C9.85274 0 0.898438 8.9543 0.898438 20ZM17.2318 29.1667L17.5721 24.0686L17.5718 24.0683L26.8459 15.6992C27.2529 15.338 26.757 15.1618 26.2167 15.4894L14.7712 22.7103L9.82736 21.1672C8.75971 20.8403 8.75204 20.1067 10.0671 19.5792L29.3321 12.1507C30.2119 11.7513 31.0612 12.3621 30.7253 13.7088L27.4445 29.1693C27.2154 30.2679 26.5515 30.5307 25.6318 30.0232L20.6341 26.3308L18.2318 28.6667C18.2242 28.674 18.2167 28.6814 18.2092 28.6887C17.9405 28.9503 17.7182 29.1667 17.2318 29.1667Z" fill="white"/>
</svg>
