<svg width="25" height="25" viewBox="0 0 25 25" fill="none" xmlns="http://www.w3.org/2000/svg">
<g clip-path="url(#clip0)">
<path d="M22.5 0H2.5C1.83696 0 1.20107 0.263392 0.732233 0.732233C0.263392 1.20107 0 1.83696 0 2.5L0 22.5C0 23.163 0.263392 23.7989 0.732233 24.2678C1.20107 24.7366 1.83696 25 2.5 25H22.5C23.163 25 23.7989 24.7366 24.2678 24.2678C24.7366 23.7989 25 23.163 25 22.5V2.5C25 1.83696 24.7366 1.20107 24.2678 0.732233C23.7989 0.263392 23.163 0 22.5 0V0ZM12.5 7.5C13.4889 7.5 14.4556 7.79324 15.2779 8.34265C16.1001 8.89206 16.741 9.67295 17.1194 10.5866C17.4978 11.5002 17.5969 12.5055 17.4039 13.4755C17.211 14.4454 16.7348 15.3363 16.0355 16.0355C15.3363 16.7348 14.4454 17.211 13.4755 17.4039C12.5055 17.5969 11.5002 17.4978 10.5866 17.1194C9.67295 16.741 8.89206 16.1001 8.34265 15.2779C7.79324 14.4556 7.5 13.4889 7.5 12.5C7.5 11.1739 8.02678 9.90215 8.96447 8.96447C9.90215 8.02678 11.1739 7.5 12.5 7.5ZM3.125 22.5C3.04149 22.5055 2.95777 22.4931 2.87944 22.4637C2.80111 22.4342 2.72997 22.3884 2.67079 22.3292C2.61162 22.27 2.56577 22.1989 2.53631 22.1206C2.50686 22.0422 2.49448 21.9585 2.5 21.875V11.25H5.125C5.02164 11.6582 4.97952 12.0794 5 12.5C5 14.4891 5.79018 16.3968 7.1967 17.8033C8.60322 19.2098 10.5109 20 12.5 20C14.4891 20 16.3968 19.2098 17.8033 17.8033C19.2098 16.3968 20 14.4891 20 12.5C20.0205 12.0794 19.9784 11.6582 19.875 11.25H22.5V21.875C22.5055 21.9585 22.4931 22.0422 22.4637 22.1206C22.4342 22.1989 22.3884 22.27 22.3292 22.3292C22.27 22.3884 22.1989 22.4342 22.1206 22.4637C22.0422 22.4931 21.9585 22.5055 21.875 22.5H3.125ZM22.5 5.625C22.5055 5.70851 22.4931 5.79223 22.4637 5.87056C22.4342 5.94889 22.3884 6.02003 22.3292 6.07921C22.27 6.13838 22.1989 6.18423 22.1206 6.21369C22.0422 6.24314 21.9585 6.25552 21.875 6.25H19.375C19.2915 6.25552 19.2078 6.24314 19.1294 6.21369C19.0511 6.18423 18.98 6.13838 18.9208 6.07921C18.8616 6.02003 18.8158 5.94889 18.7863 5.87056C18.7569 5.79223 18.7445 5.70851 18.75 5.625V3.125C18.7445 3.04149 18.7569 2.95777 18.7863 2.87944C18.8158 2.80111 18.8616 2.72997 18.9208 2.67079C18.98 2.61162 19.0511 2.56577 19.1294 2.53631C19.2078 2.50686 19.2915 2.49448 19.375 2.5H21.875C21.9585 2.49448 22.0422 2.50686 22.1206 2.53631C22.1989 2.56577 22.27 2.61162 22.3292 2.67079C22.3884 2.72997 22.4342 2.80111 22.4637 2.87944C22.4931 2.95777 22.5055 3.04149 22.5 3.125V5.625Z" fill="white"/>
</g>
<defs>
<clipPath id="clip0">
<rect width="25" height="25" fill="white"/>
</clipPath>
</defs>
</svg>
