<svg width="25" height="25" viewBox="0 0 25 25" fill="none" xmlns="http://www.w3.org/2000/svg">
<path fill-rule="evenodd" clip-rule="evenodd" d="M12.5 0C5.59644 0 0 5.59644 0 12.5C0 19.4036 5.59644 25 12.5 25C19.4036 25 25 19.4036 25 12.5C25 5.59644 19.4036 0 12.5 0ZM8.7436 6.25002C8.78059 6.27935 8.80993 6.27935 8.83927 6.27553C8.99106 6.26277 9.12116 6.29976 9.20535 6.4388C9.22021 6.4629 9.23509 6.48701 9.24996 6.51112C9.424 6.79319 9.59834 7.07576 9.76403 7.36483C9.88398 7.57382 9.99841 7.78621 10.113 7.99882C10.197 8.15472 10.281 8.31074 10.3674 8.46562C10.4008 8.52839 10.4425 8.58751 10.4843 8.64666C10.5079 8.68005 10.5315 8.71345 10.5536 8.74751C10.6068 8.83224 10.6578 8.91927 10.7076 9.00424L10.7156 9.01792C10.8227 9.22073 10.8176 9.42482 10.6582 9.58681C10.4903 9.75842 10.31 9.92097 10.1299 10.0832C10.0664 10.1404 10.0029 10.1976 9.94005 10.2552C9.8619 10.3269 9.78259 10.3975 9.70332 10.468C9.57819 10.5794 9.45315 10.6906 9.3329 10.8062C9.17984 10.9542 9.14029 11.1391 9.24361 11.3343C9.25318 11.3522 9.26275 11.3701 9.27232 11.388C9.4221 11.6686 9.57171 11.9488 9.73597 12.2233C10.3839 13.3037 11.2118 14.2221 12.2577 14.93C12.6608 15.2042 13.0804 15.4555 13.5039 15.6953C13.9031 15.9211 14.0587 15.8828 14.3687 15.5372C14.5324 15.3554 14.6928 15.1719 14.8534 14.9882C14.9757 14.8484 15.098 14.7085 15.222 14.569C15.2909 14.4912 15.3738 14.4223 15.4542 14.356C15.6174 14.2183 15.796 14.203 15.9835 14.2973C15.9953 14.3031 16.0072 14.3087 16.0192 14.3143C16.0605 14.3337 16.1023 14.3533 16.1379 14.379C16.4705 14.6169 16.8293 14.8081 17.1877 14.9991C17.3653 15.0937 17.5428 15.1883 17.717 15.2884C17.8965 15.3916 18.0729 15.4994 18.2489 15.607C18.3492 15.6683 18.4494 15.7295 18.5499 15.7897C18.6991 15.8777 18.7591 16.0066 18.7489 16.1839C18.7208 16.6826 18.6379 17.1724 18.3484 17.5933C18.2272 17.7681 18.055 17.9211 17.8815 18.0449C17.4006 18.3816 16.8636 18.5895 16.2922 18.7171C15.7731 18.8331 15.2552 18.791 14.7577 18.6354C13.7973 18.3395 12.8508 18.0002 11.9796 17.4862C11.1888 17.0181 10.4694 16.453 9.80357 15.8216C8.96044 15.0193 8.20788 14.1443 7.59945 13.1481C7.20276 12.5014 6.91959 11.805 6.66321 11.0945C6.5076 10.6659 6.35453 10.2412 6.28565 9.78707C6.20657 9.27303 6.26142 8.77812 6.42596 8.29087C6.57392 7.85081 6.75888 7.42988 7.03822 7.0536C7.25761 6.7615 7.53185 6.54721 7.88645 6.45155C8.0868 6.39854 8.28843 6.35313 8.48998 6.30773C8.57457 6.28867 8.65914 6.26962 8.7436 6.25002Z" fill="white"/>
</svg>
