<svg width="25" height="25" viewBox="0 0 25 25" fill="none" xmlns="http://www.w3.org/2000/svg">
<path fill-rule="evenodd" clip-rule="evenodd" d="M12.5 0C5.59644 0 0 5.5965 0 12.5001C0 19.4037 5.59644 25.0002 12.5 25.0002C19.4036 25.0002 25 19.4037 25 12.5001C25 5.5965 19.4036 0 12.5 0ZM8.7436 6.25012C8.78059 6.27946 8.80993 6.27946 8.83927 6.27563C8.99106 6.26288 9.12116 6.29987 9.20535 6.4389C9.22022 6.46301 9.23509 6.48713 9.24997 6.51124C9.424 6.7933 9.59835 7.07588 9.76403 7.36495C9.88398 7.57394 9.99841 7.78633 10.113 7.99893C10.197 8.15484 10.281 8.31086 10.3674 8.46574C10.4008 8.52851 10.4425 8.58764 10.4843 8.64678C10.5079 8.68017 10.5315 8.71357 10.5536 8.74764C10.6068 8.83235 10.6578 8.91936 10.7075 9.00431L10.7156 9.01805C10.8227 9.22086 10.8176 9.42495 10.6582 9.58694C10.4903 9.75855 10.31 9.9211 10.1299 10.0833C10.0664 10.1406 10.0029 10.1978 9.94005 10.2553C9.86189 10.3271 9.78259 10.3976 9.70332 10.4682C9.57819 10.5795 9.45315 10.6908 9.3329 10.8064C9.17984 10.9543 9.14029 11.1393 9.24361 11.3344C9.25318 11.3524 9.26275 11.3703 9.27232 11.3882C9.4221 11.6687 9.57171 11.9489 9.73597 12.2235C10.3839 13.3039 11.2118 14.2223 12.2577 14.9302C12.6608 15.2044 13.0804 15.4557 13.5039 15.6955C13.9031 15.9213 14.0587 15.883 14.3687 15.5374C14.5324 15.3555 14.6928 15.1721 14.8534 14.9884C14.9757 14.8486 15.098 14.7087 15.222 14.5692C15.2909 14.4914 15.3738 14.4225 15.4542 14.3562C15.6174 14.2184 15.796 14.2031 15.9835 14.2975C15.9953 14.3033 16.0072 14.3089 16.0192 14.3145C16.0605 14.3339 16.1023 14.3535 16.1379 14.3792C16.4705 14.6171 16.8293 14.8083 17.1877 14.9992C17.3653 15.0939 17.5428 15.1884 17.717 15.2886C17.8965 15.3918 18.0729 15.4996 18.2489 15.6072C18.3492 15.6685 18.4494 15.7297 18.5499 15.7899C18.6991 15.8779 18.7591 16.0068 18.7489 16.1841C18.7208 16.6828 18.6379 17.1726 18.3484 17.5935C18.2272 17.7683 18.055 17.9214 17.8815 18.0451C17.4006 18.3818 16.8636 18.5897 16.2922 18.7173C15.7731 18.8334 15.2552 18.7913 14.7577 18.6357C13.7973 18.3397 12.8508 18.0004 11.9796 17.4864C11.1888 17.0183 10.4694 16.4532 9.80357 15.8218C8.96044 15.0195 8.20788 14.1445 7.59945 13.1483C7.20276 12.5016 6.91959 11.8051 6.66321 11.0946C6.5076 10.6661 6.35453 10.2413 6.28565 9.7872C6.20657 9.27316 6.26142 8.77825 6.42596 8.29099C6.57392 7.85093 6.75888 7.43 7.03822 7.05371C7.25761 6.76161 7.53185 6.54732 7.88645 6.45166C8.0868 6.39865 8.28842 6.35323 8.48997 6.30783C8.57456 6.28878 8.65914 6.26973 8.7436 6.25012Z" fill="white"/>
</svg>
