<svg width="26" height="26" viewBox="0 0 26 26" fill="none" xmlns="http://www.w3.org/2000/svg">
<path fill-rule="evenodd" clip-rule="evenodd" d="M0 13C0 20.1797 5.8203 26 13 26C20.1797 26 26 20.1797 26 13C26 5.8203 20.1797 0 13 0C5.8203 0 0 5.8203 0 13ZM10.6169 18.9583L10.8381 15.6446L10.8379 15.6444L16.8661 10.2045C17.1306 9.96966 16.8083 9.85516 16.4571 10.0681L9.01753 14.7617L5.80404 13.7587C5.11006 13.5462 5.10508 13.0693 5.95984 12.7265L18.4821 7.89797C19.054 7.63831 19.606 8.03533 19.3877 8.91069L17.2552 18.96C17.1062 19.6741 16.6748 19.8449 16.0769 19.5151L12.8284 17.115L11.2669 18.6333C11.262 18.6381 11.2571 18.6429 11.2522 18.6476C11.0776 18.8177 10.9331 18.9583 10.6169 18.9583Z" fill="white"/>
</svg>
