<svg width="26" height="25" viewBox="0 0 26 25" fill="none" xmlns="http://www.w3.org/2000/svg">
<path fill-rule="evenodd" clip-rule="evenodd" d="M0.484375 12.5001C0.484375 19.4037 6.09833 25.0002 13.0235 25.0002C19.9487 25.0002 25.5626 19.4037 25.5626 12.5001C25.5626 5.5965 19.9487 0 13.0235 0C6.09833 0 0.484375 5.5965 0.484375 12.5001ZM10.7246 18.2293L10.9379 15.043L10.9377 15.0429L16.7522 9.81208C17.0074 9.58631 16.6965 9.47621 16.3577 9.68099L9.18189 14.1941L6.08233 13.2296C5.41296 13.0253 5.40815 12.5668 6.23261 12.2371L18.3109 7.59428C18.8626 7.34461 19.395 7.72636 19.1844 8.56806L17.1275 18.231C16.9838 18.9176 16.5676 19.0818 15.991 18.7647L12.8576 16.4569L11.3515 17.9168C11.3468 17.9214 11.3421 17.926 11.3374 17.9306C11.1689 18.0941 11.0295 18.2293 10.7246 18.2293Z" fill="white"/>
</svg>
