<svg width="40" height="39" viewBox="0 0 40 39" fill="none" xmlns="http://www.w3.org/2000/svg">
<g filter="url(#filter0_d)">
<path d="M40 19.0192C40 29.5232 35.6014 34.2346 20.0083 36.8973C6.81437 38.0384 -0.392805 29.516 0.0165328 19.0192C0.417041 8.74884 8.96714 0 20.0083 0C31.0494 0 40 8.5152 40 19.0192Z" fill="#FA6648"/>
<path d="M39.6234 19.0192C39.6234 24.22 38.5354 27.8997 35.5956 30.6224C32.6339 33.3655 27.7349 35.1945 19.9603 36.5234C13.4602 37.082 8.47926 35.2609 5.17351 32.0522C1.86202 28.838 0.1917 24.1928 0.392879 19.0339C0.785661 8.96165 9.17343 0.376632 20.0083 0.376632C30.8593 0.376632 39.6234 8.74068 39.6234 19.0192Z" stroke="#1C1C1D" stroke-width="0.753264"/>
</g>
<path d="M26.4051 25.8661V24.3446C26.4051 23.5375 26.0681 22.7635 25.4682 22.1928C24.8683 21.6221 24.0547 21.3015 23.2064 21.3015H16.809C15.9607 21.3015 15.1471 21.6221 14.5472 22.1928C13.9474 22.7635 13.6104 23.5375 13.6104 24.3446V25.8661" stroke="#1C1C1D" stroke-width="1.50653" stroke-linecap="round" stroke-linejoin="round"/>
<path d="M20.0078 18.2585C21.7743 18.2585 23.2064 16.896 23.2064 15.2154C23.2064 13.5347 21.7743 12.1723 20.0078 12.1723C18.2412 12.1723 16.8091 13.5347 16.8091 15.2154C16.8091 16.896 18.2412 18.2585 20.0078 18.2585Z" stroke="#1C1C1D" stroke-width="1.50653" stroke-linecap="round" stroke-linejoin="round"/>
<defs>
<filter id="filter0_d" x="0" y="0" width="40" height="38.5065" filterUnits="userSpaceOnUse" color-interpolation-filters="sRGB">
<feFlood flood-opacity="0" result="BackgroundImageFix"/>
<feColorMatrix in="SourceAlpha" type="matrix" values="0 0 0 0 0 0 0 0 0 0 0 0 0 0 0 0 0 0 127 0"/>
<feOffset dy="1.50653"/>
<feColorMatrix type="matrix" values="0 0 0 0 0.12549 0 0 0 0 0.12549 0 0 0 0 0.12549 0 0 0 1 0"/>
<feBlend mode="normal" in2="BackgroundImageFix" result="effect1_dropShadow"/>
<feBlend mode="normal" in="SourceGraphic" in2="effect1_dropShadow" result="shape"/>
</filter>
</defs>
</svg>
