<svg width="26" height="26" viewBox="0 0 26 26" fill="none" xmlns="http://www.w3.org/2000/svg">
<g clip-path="url(#clip0)">
<path d="M23.4961 0.282471H3.49609C2.83305 0.282471 2.19717 0.545863 1.72833 1.0147C1.25949 1.48354 0.996094 2.11943 0.996094 2.78247L0.996094 22.7825C0.996094 23.4455 1.25949 24.0814 1.72833 24.5502C2.19717 25.0191 2.83305 25.2825 3.49609 25.2825H23.4961C24.1591 25.2825 24.795 25.0191 25.2639 24.5502C25.7327 24.0814 25.9961 23.4455 25.9961 22.7825V2.78247C25.9961 2.11943 25.7327 1.48354 25.2639 1.0147C24.795 0.545863 24.1591 0.282471 23.4961 0.282471V0.282471ZM13.4961 7.78247C14.485 7.78247 15.4517 8.07572 16.2739 8.62512C17.0962 9.17453 17.7371 9.95542 18.1155 10.8691C18.4939 11.7827 18.5929 12.788 18.4 13.7579C18.2071 14.7278 17.7309 15.6187 17.0316 16.318C16.3324 17.0173 15.4415 17.4935 14.4715 17.6864C13.5016 17.8793 12.4963 17.7803 11.5827 17.4019C10.669 17.0234 9.88815 16.3826 9.33875 15.5603C8.78934 14.7381 8.49609 13.7714 8.49609 12.7825C8.49609 11.4564 9.02288 10.1846 9.96056 9.24694C10.8982 8.30925 12.17 7.78247 13.4961 7.78247ZM4.12109 22.7825C4.03759 22.788 3.95387 22.7756 3.87553 22.7462C3.7972 22.7167 3.72606 22.6709 3.66689 22.6117C3.60771 22.5525 3.56186 22.4814 3.5324 22.403C3.50295 22.3247 3.49057 22.241 3.49609 22.1575V11.5325H6.12109C6.01774 11.9406 5.97561 12.3619 5.99609 12.7825C5.99609 14.7716 6.78627 16.6792 8.19279 18.0858C9.59932 19.4923 11.507 20.2825 13.4961 20.2825C15.4852 20.2825 17.3929 19.4923 18.7994 18.0858C20.2059 16.6792 20.9961 14.7716 20.9961 12.7825C21.0166 12.3619 20.9744 11.9406 20.8711 11.5325H23.4961V22.1575C23.5016 22.241 23.4892 22.3247 23.4598 22.403C23.4303 22.4814 23.3845 22.5525 23.3253 22.6117C23.2661 22.6709 23.195 22.7167 23.1167 22.7462C23.0383 22.7756 22.9546 22.788 22.8711 22.7825H4.12109ZM23.4961 5.90747C23.5016 5.99098 23.4892 6.0747 23.4598 6.15303C23.4303 6.23136 23.3845 6.3025 23.3253 6.36168C23.2661 6.42085 23.195 6.4667 23.1167 6.49616C23.0383 6.52561 22.9546 6.53799 22.8711 6.53247H20.3711C20.2876 6.53799 20.2039 6.52561 20.1255 6.49616C20.0472 6.4667 19.9761 6.42085 19.9169 6.36168C19.8577 6.3025 19.8119 6.23136 19.7824 6.15303C19.7529 6.0747 19.7406 5.99098 19.7461 5.90747V3.40747C19.7406 3.32397 19.7529 3.24024 19.7824 3.16191C19.8119 3.08358 19.8577 3.01244 19.9169 2.95326C19.9761 2.89409 20.0472 2.84824 20.1255 2.81878C20.2039 2.78933 20.2876 2.77695 20.3711 2.78247H22.8711C22.9546 2.77695 23.0383 2.78933 23.1167 2.81878C23.195 2.84824 23.2661 2.89409 23.3253 2.95326C23.3845 3.01244 23.4303 3.08358 23.4598 3.16191C23.4892 3.24024 23.5016 3.32397 23.4961 3.40747V5.90747Z" fill="white"/>
</g>
<defs>
<clipPath id="clip0">
<rect width="25" height="25" fill="white" transform="translate(0.996094 0.282471)"/>
</clipPath>
</defs>
</svg>
