<svg width="39" height="40" viewBox="0 0 39 40" fill="none" xmlns="http://www.w3.org/2000/svg">
<g filter="url(#filter0_d)">
<path d="M39 20C39 31.0457 28.8975 38 17.9082 38C6.91882 38 0 31.0457 0 20C0 8.95431 7.71474 0 18.7041 0C29.6934 0 39 8.95431 39 20Z" fill="#FA6648"/>
<path d="M38.6 20C38.6 30.7461 28.7645 37.6 17.9082 37.6C12.4992 37.6 8.13148 35.8903 5.11664 32.86C2.10159 29.8295 0.4 25.4383 0.4 20C0.4 9.13993 7.96937 0.4 18.7041 0.4C29.4809 0.4 38.6 9.18352 38.6 20Z" stroke="#1C1C1D" stroke-width="0.8"/>
</g>
<rect x="11.1436" y="12.8" width="15.9184" height="1.6" rx="0.8" fill="#1C1C1D"/>
<rect x="11.1431" y="19.0769" width="15.9184" height="1.6" rx="0.8" fill="#1C1C1D"/>
<rect x="11.1431" y="25.3539" width="15.9184" height="1.6" rx="0.8" fill="#1C1C1D"/>
<defs>
<filter id="filter0_d" x="0" y="0" width="39" height="39.6" filterUnits="userSpaceOnUse" color-interpolation-filters="sRGB">
<feFlood flood-opacity="0" result="BackgroundImageFix"/>
<feColorMatrix in="SourceAlpha" type="matrix" values="0 0 0 0 0 0 0 0 0 0 0 0 0 0 0 0 0 0 127 0"/>
<feOffset dy="1.6"/>
<feColorMatrix type="matrix" values="0 0 0 0 0.12549 0 0 0 0 0.12549 0 0 0 0 0.12549 0 0 0 1 0"/>
<feBlend mode="normal" in2="BackgroundImageFix" result="effect1_dropShadow"/>
<feBlend mode="normal" in="SourceGraphic" in2="effect1_dropShadow" result="shape"/>
</filter>
</defs>
</svg>
