<svg width="26" height="26" viewBox="0 0 26 26" fill="none" xmlns="http://www.w3.org/2000/svg">
<path fill-rule="evenodd" clip-rule="evenodd" d="M12.5566 0.282471C5.65308 0.282471 0.0566406 5.87891 0.0566406 12.7825C0.0566406 19.686 5.65308 25.2825 12.5566 25.2825C19.4602 25.2825 25.0566 19.686 25.0566 12.7825C25.0566 5.87891 19.4602 0.282471 12.5566 0.282471ZM8.80024 6.53245C8.83724 6.56179 8.86657 6.56179 8.89591 6.55796C9.0477 6.54521 9.1778 6.5822 9.26199 6.72123C9.27685 6.74534 9.29173 6.76945 9.3066 6.79356C9.48064 7.07562 9.65498 7.3582 9.82067 7.64727C9.94062 7.85626 10.055 8.06864 10.1696 8.28124C10.2536 8.43715 10.3377 8.59317 10.424 8.74805C10.4574 8.81082 10.4992 8.86995 10.541 8.92909C10.5645 8.96248 10.5881 8.99588 10.6102 9.02994C10.6635 9.11466 10.7144 9.20167 10.7642 9.28662L10.7722 9.30036C10.8794 9.50317 10.8743 9.70725 10.7148 9.86924C10.547 10.0409 10.3666 10.2034 10.1865 10.3656C10.123 10.4229 10.0596 10.4801 9.99669 10.5376C9.91853 10.6094 9.83922 10.6799 9.75995 10.7505C9.63482 10.8618 9.50979 10.9731 9.38954 11.0887C9.23648 11.2366 9.19693 11.4216 9.30025 11.6167C9.30982 11.6346 9.31938 11.6525 9.32895 11.6705C9.47874 11.951 9.62835 12.2312 9.79261 12.5058C10.4406 13.5861 11.2684 14.5045 12.3143 15.2124C12.7174 15.4867 13.1371 15.738 13.5605 15.9778C13.9598 16.2035 14.1154 16.1653 14.4253 15.8196C14.589 15.6378 14.7494 15.4543 14.9101 15.2706C15.0323 15.1309 15.1547 14.9909 15.2787 14.8515C15.3476 14.7737 15.4305 14.7048 15.5108 14.6385C15.6741 14.5007 15.8527 14.4854 16.0402 14.5798C16.0519 14.5855 16.0639 14.5911 16.0759 14.5967C16.1172 14.6161 16.1589 14.6357 16.1945 14.6614C16.5271 14.8994 16.886 15.0905 17.2443 15.2815C17.422 15.3761 17.5995 15.4707 17.7736 15.5709C17.9531 15.674 18.1296 15.7819 18.3055 15.8894C18.4059 15.9507 18.506 16.0119 18.6065 16.0722C18.7558 16.1602 18.8157 16.289 18.8055 16.4663C18.7775 16.965 18.6945 17.4548 18.405 17.8758C18.2838 18.0505 18.1116 18.2036 17.9382 18.3273C17.4573 18.664 16.9203 18.8719 16.3488 18.9995C15.8297 19.1156 15.3118 19.0735 14.8144 18.9179C13.8539 18.6219 12.9075 18.2827 12.0363 17.7686C11.2454 17.3005 10.526 16.7354 9.86021 16.104C9.01709 15.3017 8.26452 14.4267 7.65609 13.4305C7.2594 12.7838 6.97623 12.0874 6.71985 11.3769C6.56424 10.9483 6.41117 10.5236 6.34229 10.0695C6.26321 9.55546 6.31806 9.06056 6.4826 8.5733C6.63056 8.13324 6.81552 7.71232 7.09486 7.33604C7.31425 7.04394 7.58849 6.82965 7.94309 6.73399C8.14345 6.68098 8.34507 6.63556 8.54662 6.59016C8.63121 6.57111 8.71578 6.55206 8.80024 6.53245Z" fill="white"/>
</svg>
