<svg width="26" height="26" viewBox="0 0 26 26" fill="none" xmlns="http://www.w3.org/2000/svg">
<path fill-rule="evenodd" clip-rule="evenodd" d="M0.47998 12.7825C0.47998 19.686 6.07642 25.2825 12.98 25.2825C19.8835 25.2825 25.48 19.686 25.48 12.7825C25.48 5.87891 19.8835 0.282471 12.98 0.282471C6.07642 0.282471 0.47998 5.87891 0.47998 12.7825ZM10.6884 18.5116L10.901 15.3253L10.9009 15.3252L16.6972 10.0945C16.9516 9.86869 16.6416 9.75859 16.3039 9.96338L9.15049 14.4764L6.06059 13.512C5.39331 13.3077 5.38852 12.8491 6.21041 12.5195L18.251 7.87668C18.801 7.62701 19.3317 8.00876 19.1218 8.85045L17.0713 18.5133C16.9281 19.1999 16.5132 19.3641 15.9384 19.047L12.8148 16.7392L11.3134 18.1991C11.3086 18.2038 11.3039 18.2083 11.2992 18.2129C11.1313 18.3764 10.9924 18.5116 10.6884 18.5116Z" fill="white"/>
</svg>
